<?xml version="1.0" encoding="UTF-8" standalone="no"?>
<!DOCTYPE svg PUBLIC "-//W3C//DTD SVG 1.1//EN"
 "http://www.w3.org/Graphics/SVG/1.1/DTD/svg11.dtd">
<!-- Generated by graphviz version 15.1.0 (20260618.0150)
 -->
<!-- Title: CrossProjectLearningAndSync Pages: 1 -->
<svg width="1082pt" height="1853pt"
 viewBox="0.00 0.00 1082.00 1853.00" xmlns="http://www.w3.org/2000/svg" xmlns:xlink="http://www.w3.org/1999/xlink">
<g id="graph0" class="graph" transform="scale(1 1) rotate(0) translate(27.36 1825.39)">
<title>CrossProjectLearningAndSync</title>
<polygon fill="#ffffff" stroke="none" points="-27.36,27.36 -27.36,-1825.39 1054.88,-1825.39 1054.88,27.36 -27.36,27.36"/>
<text xml:space="preserve" text-anchor="middle" x="513.76" y="-1776.93" font-family="Microsoft YaHei" font-size="18.00" fill="#111111">跨项目学习与同步闭环</text>
<!-- discover&#45;&gt;source_verify -->
<g id="edge1" class="edge">
<title>discover&#45;&gt;source_verify</title>
<path fill="none" stroke="#444444" stroke-width="1.2" d="M230.72,-1712.7C230.72,-1712.7 230.72,-1677.98 230.72,-1677.98"/>
<polygon fill="#444444" stroke="#444444" stroke-width="1.2" points="233.31,-1677.98 230.72,-1670.58 228.13,-1677.98 233.31,-1677.98"/>
</g>
<!-- source_verify&#45;&gt;reusable -->
<g id="edge2" class="edge">
<title>source_verify&#45;&gt;reusable</title>
<path fill="none" stroke="#444444" stroke-width="1.2" d="M230.72,-1614.59C230.72,-1614.59 230.72,-1579.74 230.72,-1579.74"/>
<polygon fill="#444444" stroke="#444444" stroke-width="1.2" points="233.31,-1579.74 230.72,-1572.34 228.13,-1579.74 233.31,-1579.74"/>
</g>
<!-- reusable&#45;&gt;local_only -->
<g id="edge3" class="edge">
<title>reusable&#45;&gt;local_only</title>
<path fill="none" stroke="#444444" stroke-width="1.2" d="M396.72,-1531C396.72,-1531 428.93,-1531 428.93,-1531"/>
<polygon fill="#444444" stroke="#444444" stroke-width="1.2" points="428.93,-1533.59 436.33,-1531 428.93,-1528.41 428.93,-1533.59"/>
<text xml:space="preserve" text-anchor="middle" x="421.83" y="-1535.2" font-family="Microsoft YaHei" font-size="9.00" fill="#333333">不能</text>
</g>
<!-- reusable&#45;&gt;central_confirm -->
<g id="edge4" class="edge">
<title>reusable&#45;&gt;central_confirm</title>
<path fill="none" stroke="#444444" stroke-width="1.2" d="M230.72,-1490.4C230.72,-1490.4 230.72,-1455.77 230.72,-1455.77"/>
<polygon fill="#444444" stroke="#444444" stroke-width="1.2" points="233.31,-1455.77 230.72,-1448.37 228.13,-1455.77 233.31,-1455.77"/>
<text xml:space="preserve" text-anchor="middle" x="226.22" y="-1477.28" font-family="Microsoft YaHei" font-size="9.00" fill="#333333">能</text>
</g>
<!-- central_confirm&#45;&gt;central_library -->
<g id="edge5" class="edge">
<title>central_confirm&#45;&gt;central_library</title>
<path fill="none" stroke="#444444" stroke-width="1.2" d="M230.72,-1392.2C230.72,-1392.2 230.72,-1357.28 230.72,-1357.28"/>
<polygon fill="#444444" stroke="#444444" stroke-width="1.2" points="233.31,-1357.28 230.72,-1349.88 228.13,-1357.28 233.31,-1357.28"/>
</g>
<!-- central_library&#45;&gt;affected_projects -->
<g id="edge6" class="edge">
<title>central_library&#45;&gt;affected_projects</title>
<path fill="none" stroke="#444444" stroke-width="1.2" d="M230.72,-1293.92C230.72,-1293.92 230.72,-1259 230.72,-1259"/>
<polygon fill="#444444" stroke="#444444" stroke-width="1.2" points="233.31,-1259 230.72,-1251.6 228.13,-1259 233.31,-1259"/>
</g>
<!-- affected_projects&#45;&gt;mark_pending -->
<g id="edge7" class="edge">
<title>affected_projects&#45;&gt;mark_pending</title>
<path fill="none" stroke="#444444" stroke-width="1.2" d="M230.72,-1195.64C230.72,-1195.64 230.72,-1160.72 230.72,-1160.72"/>
<polygon fill="#444444" stroke="#444444" stroke-width="1.2" points="233.31,-1160.72 230.72,-1153.32 228.13,-1160.72 233.31,-1160.72"/>
</g>
<!-- mark_pending&#45;&gt;enter_project -->
<g id="edge8" class="edge">
<title>mark_pending&#45;&gt;enter_project</title>
<path fill="none" stroke="#444444" stroke-width="1.2" d="M230.72,-1097.36C230.72,-1097.36 230.72,-1062.44 230.72,-1062.44"/>
<polygon fill="#444444" stroke="#444444" stroke-width="1.2" points="233.31,-1062.44 230.72,-1055.04 228.13,-1062.44 233.31,-1062.44"/>
</g>
<!-- enter_project&#45;&gt;analyze_local -->
<g id="edge9" class="edge">
<title>enter_project&#45;&gt;analyze_local</title>
<path fill="none" stroke="#444444" stroke-width="1.2" d="M230.72,-999.08C230.72,-999.08 230.72,-964.16 230.72,-964.16"/>
<polygon fill="#444444" stroke="#444444" stroke-width="1.2" points="233.31,-964.16 230.72,-956.76 228.13,-964.16 233.31,-964.16"/>
</g>
<!-- analyze_local&#45;&gt;local_conclusion -->
<g id="edge10" class="edge">
<title>analyze_local&#45;&gt;local_conclusion</title>
<path fill="none" stroke="#444444" stroke-width="1.2" d="M230.72,-900.8C230.72,-900.8 230.72,-865.88 230.72,-865.88"/>
<polygon fill="#444444" stroke="#444444" stroke-width="1.2" points="233.31,-865.88 230.72,-858.48 228.13,-865.88 233.31,-865.88"/>
</g>
<!-- local_conclusion&#45;&gt;change_needed -->
<g id="edge11" class="edge">
<title>local_conclusion&#45;&gt;change_needed</title>
<path fill="none" stroke="#444444" stroke-width="1.2" d="M230.72,-802.43C230.72,-802.43 230.72,-767.58 230.72,-767.58"/>
<polygon fill="#444444" stroke="#444444" stroke-width="1.2" points="233.31,-767.58 230.72,-760.18 228.13,-767.58 233.31,-767.58"/>
</g>
<!-- change_needed&#45;&gt;no_change -->
<g id="edge12" class="edge">
<title>change_needed&#45;&gt;no_change</title>
<path fill="none" stroke="#444444" stroke-width="1.2" d="M230.72,-678.24C230.72,-678.24 230.72,-643.61 230.72,-643.61"/>
<polygon fill="#444444" stroke="#444444" stroke-width="1.2" points="233.31,-643.61 230.72,-636.21 228.13,-643.61 233.31,-643.61"/>
<text xml:space="preserve" text-anchor="middle" x="217.22" y="-665.12" font-family="Microsoft YaHei" font-size="9.00" fill="#333333">不需要</text>
</g>
<!-- change_needed&#45;&gt;apply_local -->
<g id="edge13" class="edge">
<title>change_needed&#45;&gt;apply_local</title>
<path fill="none" stroke="#444444" stroke-width="1.2" d="M397.18,-718C397.18,-718 428.16,-718 428.16,-718"/>
<polygon fill="#444444" stroke="#444444" stroke-width="1.2" points="428.16,-720.59 435.56,-718 428.16,-715.41 428.16,-720.59"/>
<text xml:space="preserve" text-anchor="middle" x="421.67" y="-722.2" font-family="Microsoft YaHei" font-size="9.00" fill="#333333">需要</text>
</g>
<!-- no_change&#45;&gt;registry -->
<g id="edge20" class="edge">
<title>no_change&#45;&gt;registry</title>
<path fill="none" stroke="#444444" stroke-width="1.2" d="M230.72,-580.05C230.72,-580.05 230.72,-332.04 230.72,-332.04"/>
<polygon fill="#444444" stroke="#444444" stroke-width="1.2" points="233.31,-332.04 230.72,-324.64 228.13,-332.04 233.31,-332.04"/>
</g>
<!-- apply_local&#45;&gt;probe -->
<g id="edge14" class="edge">
<title>apply_local&#45;&gt;probe</title>
<path fill="none" stroke="#444444" stroke-width="1.2" d="M574.72,-691.19C574.72,-691.19 574.72,-643.69 574.72,-643.69"/>
<polygon fill="#444444" stroke="#444444" stroke-width="1.2" points="577.31,-643.69 574.72,-636.29 572.13,-643.69 577.31,-643.69"/>
</g>
<!-- probe&#45;&gt;hard_fail -->
<g id="edge15" class="edge">
<title>probe&#45;&gt;hard_fail</title>
<path fill="none" stroke="#444444" stroke-width="1.2" d="M574.72,-580.02C574.72,-580.02 574.72,-545.01 574.72,-545.01"/>
<polygon fill="#444444" stroke="#444444" stroke-width="1.2" points="577.31,-545.01 574.72,-537.61 572.13,-545.01 577.31,-545.01"/>
</g>
<!-- hard_fail&#45;&gt;repair -->
<g id="edge16" class="edge">
<title>hard_fail&#45;&gt;repair</title>
<path fill="none" stroke="#444444" stroke-width="1.2" d="M712.4,-497C712.4,-497 744.3,-497 744.3,-497"/>
<polygon fill="#444444" stroke="#444444" stroke-width="1.2" points="744.3,-499.59 751.7,-497 744.3,-494.41 744.3,-499.59"/>
<text xml:space="preserve" text-anchor="middle" x="723.85" y="-501.2" font-family="Microsoft YaHei" font-size="9.00" fill="#333333">有</text>
</g>
<!-- hard_fail&#45;&gt;passed -->
<g id="edge17" class="edge">
<title>hard_fail&#45;&gt;passed</title>
<path fill="none" stroke="#444444" stroke-width="1.2" d="M574.72,-458.93C574.72,-458.93 574.72,-331.77 574.72,-331.77"/>
<polygon fill="#444444" stroke="#444444" stroke-width="1.2" points="577.31,-331.77 574.72,-324.37 572.13,-331.77 577.31,-331.77"/>
<text xml:space="preserve" text-anchor="middle" x="570.22" y="-399.55" font-family="Microsoft YaHei" font-size="9.00" fill="#333333">无</text>
</g>
<!-- passed&#45;&gt;registry -->
<g id="edge21" class="edge">
<title>passed&#45;&gt;registry</title>
<path fill="none" stroke="#444444" stroke-width="1.2" d="M437.77,-296C437.77,-296 405.97,-296 405.97,-296"/>
<polygon fill="#444444" stroke="#444444" stroke-width="1.2" points="405.97,-293.41 398.57,-296 405.97,-298.59 405.97,-293.41"/>
</g>
<!-- registry&#45;&gt;more_projects -->
<g id="edge22" class="edge">
<title>registry&#45;&gt;more_projects</title>
<path fill="none" stroke="#444444" stroke-width="1.2" d="M230.72,-268.35C230.72,-268.35 230.72,-233.5 230.72,-233.5"/>
<polygon fill="#444444" stroke="#444444" stroke-width="1.2" points="233.31,-233.5 230.72,-226.1 228.13,-233.5 233.31,-233.5"/>
</g>
<!-- more_projects&#45;&gt;next_project -->
<g id="edge23" class="edge">
<title>more_projects&#45;&gt;next_project</title>
<path fill="none" stroke="#444444" stroke-width="1.2" d="M230.72,-144.16C230.72,-144.16 230.72,-109.53 230.72,-109.53"/>
<polygon fill="#444444" stroke="#444444" stroke-width="1.2" points="233.31,-109.53 230.72,-102.13 228.13,-109.53 233.31,-109.53"/>
<text xml:space="preserve" text-anchor="middle" x="226.22" y="-131.04" font-family="Microsoft YaHei" font-size="9.00" fill="#333333">有</text>
</g>
<!-- more_projects&#45;&gt;done -->
<g id="edge24" class="edge">
<title>more_projects&#45;&gt;done</title>
<path fill="none" stroke="#444444" stroke-width="1.2" d="M397.39,-184C397.39,-184 475.07,-184 475.07,-184"/>
<polygon fill="#444444" stroke="#444444" stroke-width="1.2" points="475.07,-186.59 482.47,-184 475.07,-181.41 475.07,-186.59"/>
<text xml:space="preserve" text-anchor="middle" x="427.23" y="-188.2" font-family="Microsoft YaHei" font-size="9.00" fill="#333333">没有</text>
</g>
<!-- next_project&#45;&gt;next_bottom -->
<g id="edge25" class="edge">
<title>next_project&#45;&gt;next_bottom</title>
<path fill="none" stroke="#444444" stroke-width="1.2" stroke-dasharray="5,2" d="M230.72,-46.14C230.72,-28.13 230.72,-6.86 230.72,-1.83"/>
</g>
<!-- done&#45;&gt;boundaries -->
<!-- repair_top&#45;&gt;probe -->
<g id="edge19" class="edge">
<title>repair_top&#45;&gt;probe</title>
<path fill="none" stroke="#444444" stroke-width="1.2" stroke-dasharray="5,2" d="M889.58,-607C889.58,-607 721.15,-607 721.15,-607"/>
<polygon fill="#444444" stroke="#444444" stroke-width="1.2" points="721.15,-604.41 713.75,-607 721.15,-609.59 721.15,-604.41"/>
</g>
<!-- repair_top&#45;&gt;repair -->
<g id="edge18" class="edge">
<title>repair_top&#45;&gt;repair</title>
<path fill="none" stroke="#444444" stroke-width="1.2" stroke-dasharray="5,2" d="M890.72,-605.93C890.72,-598.03 890.72,-553.99 890.72,-524.48"/>
</g>
<!-- next_outer_bottom&#45;&gt;next_bottom -->
<g id="edge26" class="edge">
<title>next_outer_bottom&#45;&gt;next_bottom</title>
<path fill="none" stroke="#444444" stroke-width="1.2" stroke-dasharray="5,2" d="M1.75,-1C17.69,-1 214.43,-1 229.77,-1"/>
</g>
<!-- next_outer_top&#45;&gt;enter_project -->
<g id="edge28" class="edge">
<title>next_outer_top&#45;&gt;enter_project</title>
<path fill="none" stroke="#444444" stroke-width="1.2" stroke-dasharray="5,2" d="M1.75,-1026C1.75,-1026 55.32,-1026 55.32,-1026"/>
<polygon fill="#444444" stroke="#444444" stroke-width="1.2" points="55.32,-1028.59 62.72,-1026 55.32,-1023.41 55.32,-1028.59"/>
</g>
<!-- next_outer_top&#45;&gt;next_outer_bottom -->
<g id="edge27" class="edge">
<title>next_outer_top&#45;&gt;next_outer_bottom</title>
<path fill="none" stroke="#444444" stroke-width="1.2" stroke-dasharray="5,2" d="M0.72,-1025.04C0.72,-987.29 0.72,-38.87 0.72,-1.83"/>
</g>
<!-- discover -->
<g id="node1" class="node">
<title>discover</title>
<ellipse fill="#ffffff" stroke="#333333" stroke-width="1.5" cx="230.72" cy="-1739.36" rx="165.6" ry="25.92"/>
<text xml:space="preserve" text-anchor="middle" x="230.72" y="-1736.6" font-family="Microsoft YaHei" font-size="10.80" fill="#111111">来源项目发现有效的治理做法</text>
</g>
<!-- source_verify -->
<g id="node2" class="node">
<title>source_verify</title>
<path fill="#f2f2f2" stroke="#333333" stroke-width="1.2" d="M384.32,-1668.44C384.32,-1668.44 77.12,-1668.44 77.12,-1668.44 71.12,-1668.44 65.12,-1662.44 65.12,-1656.44 65.12,-1656.44 65.12,-1627.16 65.12,-1627.16 65.12,-1621.16 71.12,-1615.16 77.12,-1615.16 77.12,-1615.16 384.32,-1615.16 384.32,-1615.16 390.32,-1615.16 396.32,-1621.16 396.32,-1627.16 396.32,-1627.16 396.32,-1656.44 396.32,-1656.44 396.32,-1662.44 390.32,-1668.44 384.32,-1668.44"/>
<text xml:space="preserve" text-anchor="middle" x="230.72" y="-1639.04" font-family="Microsoft YaHei" font-size="10.80" fill="#111111">在来源项目的真实工作中验证</text>
</g>
<!-- reusable -->
<g id="node3" class="node">
<title>reusable</title>
<polygon fill="#ffffff" stroke="#333333" stroke-width="1.2" points="230.72,-1570.16 65.12,-1530.56 230.72,-1490.96 396.32,-1530.56 230.72,-1570.16"/>
<text xml:space="preserve" text-anchor="middle" x="230.72" y="-1527.8" font-family="Microsoft YaHei" font-size="10.80" fill="#111111">能够跨项目复用？</text>
</g>
<!-- local_only -->
<g id="node4" class="node">
<title>local_only</title>
<ellipse fill="#f7f7f7" stroke="#333333" stroke-width="1.2" cx="571.72" cy="-1530.56" rx="133.2" ry="27.36"/>
<text xml:space="preserve" text-anchor="middle" x="571.72" y="-1527.8" font-family="Microsoft YaHei" font-size="10.80" fill="#111111">只适用来源项目：留在项目本地</text>
</g>
<!-- central_confirm -->
<g id="node5" class="node">
<title>central_confirm</title>
<path fill="#f2f2f2" stroke="#333333" stroke-width="1.2" d="M384.32,-1445.96C384.32,-1445.96 77.12,-1445.96 77.12,-1445.96 71.12,-1445.96 65.12,-1439.96 65.12,-1433.96 65.12,-1433.96 65.12,-1404.68 65.12,-1404.68 65.12,-1398.68 71.12,-1392.68 77.12,-1392.68 77.12,-1392.68 384.32,-1392.68 384.32,-1392.68 390.32,-1392.68 396.32,-1398.68 396.32,-1404.68 396.32,-1404.68 396.32,-1433.96 396.32,-1433.96 396.32,-1439.96 390.32,-1445.96 384.32,-1445.96"/>
<text xml:space="preserve" text-anchor="middle" x="230.72" y="-1416.56" font-family="Microsoft YaHei" font-size="10.80" fill="#111111">可以复用：说明依据并取得中央收录确认</text>
</g>
<!-- central_library -->
<g id="node6" class="node">
<title>central_library</title>
<path fill="#ffffff" stroke="#333333" stroke-width="1.2" d="M384.32,-1347.68C384.32,-1347.68 77.12,-1347.68 77.12,-1347.68 71.12,-1347.68 65.12,-1341.68 65.12,-1335.68 65.12,-1335.68 65.12,-1306.4 65.12,-1306.4 65.12,-1300.4 71.12,-1294.4 77.12,-1294.4 77.12,-1294.4 384.32,-1294.4 384.32,-1294.4 390.32,-1294.4 396.32,-1300.4 396.32,-1306.4 396.32,-1306.4 396.32,-1335.68 396.32,-1335.68 396.32,-1341.68 390.32,-1347.68 384.32,-1347.68"/>
<text xml:space="preserve" text-anchor="middle" x="230.72" y="-1318.28" font-family="Microsoft YaHei" font-size="10.80" fill="#111111">写入中央模式库</text>
</g>
<!-- affected_projects -->
<g id="node7" class="node">
<title>affected_projects</title>
<path fill="#ffffff" stroke="#333333" stroke-width="1.2" d="M384.32,-1249.4C384.32,-1249.4 77.12,-1249.4 77.12,-1249.4 71.12,-1249.4 65.12,-1243.4 65.12,-1237.4 65.12,-1237.4 65.12,-1208.12 65.12,-1208.12 65.12,-1202.12 71.12,-1196.12 77.12,-1196.12 77.12,-1196.12 384.32,-1196.12 384.32,-1196.12 390.32,-1196.12 396.32,-1202.12 396.32,-1208.12 396.32,-1208.12 396.32,-1237.4 396.32,-1237.4 396.32,-1243.4 390.32,-1249.4 384.32,-1249.4"/>
<text xml:space="preserve" text-anchor="middle" x="230.72" y="-1220" font-family="Microsoft YaHei" font-size="10.80" fill="#111111">找出可能受影响的登记项目</text>
</g>
<!-- mark_pending -->
<g id="node8" class="node">
<title>mark_pending</title>
<path fill="#f2f2f2" stroke="#333333" stroke-width="1.2" d="M384.32,-1151.12C384.32,-1151.12 77.12,-1151.12 77.12,-1151.12 71.12,-1151.12 65.12,-1145.12 65.12,-1139.12 65.12,-1139.12 65.12,-1109.84 65.12,-1109.84 65.12,-1103.84 71.12,-1097.84 77.12,-1097.84 77.12,-1097.84 384.32,-1097.84 384.32,-1097.84 390.32,-1097.84 396.32,-1103.84 396.32,-1109.84 396.32,-1109.84 396.32,-1139.12 396.32,-1139.12 396.32,-1145.12 390.32,-1151.12 384.32,-1151.12"/>
<text xml:space="preserve" text-anchor="middle" x="230.72" y="-1121.72" font-family="Microsoft YaHei" font-size="10.80" fill="#111111">标记待讨论，只在治理相关对话提醒</text>
</g>
<!-- enter_project -->
<g id="node9" class="node">
<title>enter_project</title>
<path fill="#ffffff" stroke="#333333" stroke-width="1.4" d="M384.32,-1052.84C384.32,-1052.84 77.12,-1052.84 77.12,-1052.84 71.12,-1052.84 65.12,-1046.84 65.12,-1040.84 65.12,-1040.84 65.12,-1011.56 65.12,-1011.56 65.12,-1005.56 71.12,-999.56 77.12,-999.56 77.12,-999.56 384.32,-999.56 384.32,-999.56 390.32,-999.56 396.32,-1005.56 396.32,-1011.56 396.32,-1011.56 396.32,-1040.84 396.32,-1040.84 396.32,-1046.84 390.32,-1052.84 384.32,-1052.84"/>
<text xml:space="preserve" text-anchor="middle" x="230.72" y="-1023.44" font-family="Microsoft YaHei" font-size="10.80" fill="#111111">进入一个目标项目的治理相关对话</text>
</g>
<!-- analyze_local -->
<g id="node10" class="node">
<title>analyze_local</title>
<path fill="#ffffff" stroke="#333333" stroke-width="1.2" d="M384.32,-954.56C384.32,-954.56 77.12,-954.56 77.12,-954.56 71.12,-954.56 65.12,-948.56 65.12,-942.56 65.12,-942.56 65.12,-913.28 65.12,-913.28 65.12,-907.28 71.12,-901.28 77.12,-901.28 77.12,-901.28 384.32,-901.28 384.32,-901.28 390.32,-901.28 396.32,-907.28 396.32,-913.28 396.32,-913.28 396.32,-942.56 396.32,-942.56 396.32,-948.56 390.32,-954.56 384.32,-954.56"/>
<text xml:space="preserve" text-anchor="middle" x="230.72" y="-925.16" font-family="Microsoft YaHei" font-size="10.80" fill="#111111">分析本地现实、已有优点和适用边界</text>
</g>
<!-- local_conclusion -->
<g id="node11" class="node">
<title>local_conclusion</title>
<path fill="#f2f2f2" stroke="#333333" stroke-width="1.2" d="M384.32,-856.28C384.32,-856.28 77.12,-856.28 77.12,-856.28 71.12,-856.28 65.12,-850.28 65.12,-844.28 65.12,-844.28 65.12,-815 65.12,-815 65.12,-809 71.12,-803 77.12,-803 77.12,-803 384.32,-803 384.32,-803 390.32,-803 396.32,-809 396.32,-815 396.32,-815 396.32,-844.28 396.32,-844.28 396.32,-850.28 390.32,-856.28 384.32,-856.28"/>
<text xml:space="preserve" text-anchor="middle" x="230.72" y="-834.38" font-family="Microsoft YaHei" font-size="10.80" fill="#111111">讨论并确认本地结论：采用、本地例外、</text>
<text xml:space="preserve" text-anchor="middle" x="230.72" y="-819.38" font-family="Microsoft YaHei" font-size="10.80" fill="#111111">不适用或继续待讨论</text>
</g>
<!-- change_needed -->
<g id="node12" class="node">
<title>change_needed</title>
<polygon fill="#ffffff" stroke="#333333" stroke-width="1.2" points="230.72,-758 65.12,-718.4 230.72,-678.8 396.32,-718.4 230.72,-758"/>
<text xml:space="preserve" text-anchor="middle" x="230.72" y="-715.64" font-family="Microsoft YaHei" font-size="10.80" fill="#111111">需要实施或验证本地变化？</text>
</g>
<!-- no_change -->
<g id="node13" class="node">
<title>no_change</title>
<path fill="#ffffff" stroke="#333333" stroke-width="1.2" d="M384.32,-633.8C384.32,-633.8 77.12,-633.8 77.12,-633.8 71.12,-633.8 65.12,-627.8 65.12,-621.8 65.12,-621.8 65.12,-592.52 65.12,-592.52 65.12,-586.52 71.12,-580.52 77.12,-580.52 77.12,-580.52 384.32,-580.52 384.32,-580.52 390.32,-580.52 396.32,-586.52 396.32,-592.52 396.32,-592.52 396.32,-621.8 396.32,-621.8 396.32,-627.8 390.32,-633.8 384.32,-633.8"/>
<text xml:space="preserve" text-anchor="middle" x="230.72" y="-604.4" font-family="Microsoft YaHei" font-size="10.80" fill="#111111">无需修改或验证：登记本地结论</text>
</g>
<!-- apply_local -->
<g id="node14" class="node">
<title>apply_local</title>
<path fill="#f2f2f2" stroke="#333333" stroke-width="1.2" d="M699.52,-745.04C699.52,-745.04 449.92,-745.04 449.92,-745.04 443.92,-745.04 437.92,-739.04 437.92,-733.04 437.92,-733.04 437.92,-703.76 437.92,-703.76 437.92,-697.76 443.92,-691.76 449.92,-691.76 449.92,-691.76 699.52,-691.76 699.52,-691.76 705.52,-691.76 711.52,-697.76 711.52,-703.76 711.52,-703.76 711.52,-733.04 711.52,-733.04 711.52,-739.04 705.52,-745.04 699.52,-745.04"/>
<text xml:space="preserve" text-anchor="middle" x="574.72" y="-715.64" font-family="Microsoft YaHei" font-size="10.80" fill="#111111">需要修改或验证：按确认方案实施</text>
</g>
<!-- probe -->
<g id="node15" class="node">
<title>probe</title>
<path fill="#ffffff" stroke="#333333" stroke-width="1.4" d="M699.52,-633.8C699.52,-633.8 449.92,-633.8 449.92,-633.8 443.92,-633.8 437.92,-627.8 437.92,-621.8 437.92,-621.8 437.92,-592.52 437.92,-592.52 437.92,-586.52 443.92,-580.52 449.92,-580.52 449.92,-580.52 699.52,-580.52 699.52,-580.52 705.52,-580.52 711.52,-586.52 711.52,-592.52 711.52,-592.52 711.52,-621.8 711.52,-621.8 711.52,-627.8 705.52,-633.8 699.52,-633.8"/>
<text xml:space="preserve" text-anchor="middle" x="574.72" y="-604.4" font-family="Microsoft YaHei" font-size="10.80" fill="#111111">在目标项目运行真实对话探针</text>
</g>
<!-- hard_fail -->
<g id="node16" class="node">
<title>hard_fail</title>
<polygon fill="#ffffff" stroke="#333333" stroke-width="1.2" points="574.72,-535.52 437.92,-497.36 574.72,-459.2 711.52,-497.36 574.72,-535.52"/>
<text xml:space="preserve" text-anchor="middle" x="574.72" y="-494.6" font-family="Microsoft YaHei" font-size="10.80" fill="#111111">存在硬失败？</text>
</g>
<!-- repair -->
<g id="node17" class="node">
<title>repair</title>
<path fill="#f2f2f2" stroke="#333333" stroke-width="1.2" d="M1015.52,-524C1015.52,-524 765.92,-524 765.92,-524 759.92,-524 753.92,-518 753.92,-512 753.92,-512 753.92,-482.72 753.92,-482.72 753.92,-476.72 759.92,-470.72 765.92,-470.72 765.92,-470.72 1015.52,-470.72 1015.52,-470.72 1021.52,-470.72 1027.52,-476.72 1027.52,-482.72 1027.52,-482.72 1027.52,-512 1027.52,-512 1027.52,-518 1021.52,-524 1015.52,-524"/>
<text xml:space="preserve" text-anchor="middle" x="890.72" y="-494.6" font-family="Microsoft YaHei" font-size="10.80" fill="#111111">有硬失败：修正本地最小责任面</text>
</g>
<!-- passed -->
<g id="node18" class="node">
<title>passed</title>
<path fill="#ffffff" stroke="#333333" stroke-width="1.2" d="M699.52,-322.2C699.52,-322.2 449.92,-322.2 449.92,-322.2 443.92,-322.2 437.92,-316.2 437.92,-310.2 437.92,-310.2 437.92,-280.92 437.92,-280.92 437.92,-274.92 443.92,-268.92 449.92,-268.92 449.92,-268.92 699.52,-268.92 699.52,-268.92 705.52,-268.92 711.52,-274.92 711.52,-280.92 711.52,-280.92 711.52,-310.2 711.52,-310.2 711.52,-316.2 705.52,-322.2 699.52,-322.2"/>
<text xml:space="preserve" text-anchor="middle" x="574.72" y="-292.8" font-family="Microsoft YaHei" font-size="10.80" fill="#111111">无硬失败：形成准确的本地状态</text>
</g>
<!-- registry -->
<g id="node19" class="node">
<title>registry</title>
<path fill="#f2f2f2" stroke="#333333" stroke-width="1.4" d="M384.32,-322.2C384.32,-322.2 77.12,-322.2 77.12,-322.2 71.12,-322.2 65.12,-316.2 65.12,-310.2 65.12,-310.2 65.12,-280.92 65.12,-280.92 65.12,-274.92 71.12,-268.92 77.12,-268.92 77.12,-268.92 384.32,-268.92 384.32,-268.92 390.32,-268.92 396.32,-274.92 396.32,-280.92 396.32,-280.92 396.32,-310.2 396.32,-310.2 396.32,-316.2 390.32,-322.2 384.32,-322.2"/>
<text xml:space="preserve" text-anchor="middle" x="230.72" y="-292.8" font-family="Microsoft YaHei" font-size="10.80" fill="#111111">回写中央登记状态</text>
</g>
<!-- more_projects -->
<g id="node20" class="node">
<title>more_projects</title>
<polygon fill="#ffffff" stroke="#333333" stroke-width="1.2" points="230.72,-223.92 65.12,-184.32 230.72,-144.72 396.32,-184.32 230.72,-223.92"/>
<text xml:space="preserve" text-anchor="middle" x="230.72" y="-181.56" font-family="Microsoft YaHei" font-size="10.80" fill="#111111">还有受影响项目待处理？</text>
</g>
<!-- next_project -->
<g id="node21" class="node">
<title>next_project</title>
<path fill="#ffffff" stroke="#333333" stroke-width="1.2" d="M384.32,-99.72C384.32,-99.72 77.12,-99.72 77.12,-99.72 71.12,-99.72 65.12,-93.72 65.12,-87.72 65.12,-87.72 65.12,-58.44 65.12,-58.44 65.12,-52.44 71.12,-46.44 77.12,-46.44 77.12,-46.44 384.32,-46.44 384.32,-46.44 390.32,-46.44 396.32,-52.44 396.32,-58.44 396.32,-58.44 396.32,-87.72 396.32,-87.72 396.32,-93.72 390.32,-99.72 384.32,-99.72"/>
<text xml:space="preserve" text-anchor="middle" x="230.72" y="-70.32" font-family="Microsoft YaHei" font-size="10.80" fill="#111111">还有项目：处理下一个项目</text>
</g>
<!-- done -->
<g id="node22" class="node">
<title>done</title>
<ellipse fill="#e8e8e8" stroke="#333333" stroke-width="1.5" cx="621.72" cy="-184.32" rx="136.8" ry="29.52"/>
<text xml:space="preserve" text-anchor="middle" x="621.72" y="-189.06" font-family="Microsoft YaHei" font-size="10.80" fill="#111111">没有项目：所有状态准确，</text>
<text xml:space="preserve" text-anchor="middle" x="621.72" y="-174.06" font-family="Microsoft YaHei" font-size="10.80" fill="#111111">本轮同步结束</text>
</g>
<!-- boundaries -->
<g id="node23" class="node">
<title>boundaries</title>
<polygon fill="#f7f7f7" stroke="#777777" stroke-width="1.2" stroke-dasharray="5,2" points="799.47,-97.38 437.97,-97.38 437.97,-48.78 805.47,-48.78 805.47,-91.38 799.47,-97.38"/>
<polyline fill="none" stroke="#777777" stroke-width="1.2" stroke-dasharray="5,2" points="799.47,-97.38 799.47,-91.38"/>
<polyline fill="none" stroke="#777777" stroke-width="1.2" stroke-dasharray="5,2" points="805.47,-91.38 799.47,-91.38"/>
<text xml:space="preserve" text-anchor="middle" x="621.72" y="-77.55" font-family="Microsoft YaHei" font-size="9.50" fill="#111111">同步边界：中央变化不能批量改写项目；无关业务任务不被待同步事项打断；</text>
<text xml:space="preserve" text-anchor="middle" x="621.72" y="-64.05" font-family="Microsoft YaHei" font-size="9.50" fill="#111111">业务事实、私有数据和领域任务不进入中央方法</text>
</g>
<!-- repair_top -->
<!-- next_bottom -->
<!-- next_outer_bottom -->
<!-- next_outer_top -->
</g>
</svg>
