<?xml version="1.0" encoding="UTF-8" standalone="no"?>
<!DOCTYPE svg PUBLIC "-//W3C//DTD SVG 1.1//EN"
 "http://www.w3.org/Graphics/SVG/1.1/DTD/svg11.dtd">
<!-- Generated by graphviz version 15.1.0 (20260618.0150)
 -->
<!-- Title: LayeredDiagnosisAndFeedbackCompany Pages: 1 -->
<svg width="855pt" height="2095pt"
 viewBox="0.00 0.00 855.00 2095.00" xmlns="http://www.w3.org/2000/svg" xmlns:xlink="http://www.w3.org/1999/xlink">
<g id="graph0" class="graph" transform="scale(1 1) rotate(0) translate(25.92 2069.45)">
<title>LayeredDiagnosisAndFeedbackCompany</title>
<polygon fill="#ffffff" stroke="none" points="-25.92,25.92 -25.92,-2069.45 828.64,-2069.45 828.64,25.92 -25.92,25.92"/>
<text xml:space="preserve" text-anchor="middle" x="401.36" y="-2022.43" font-family="Microsoft YaHei" font-size="18.00" fill="#111111">自我反思与分层诊断（集团版）</text>
<g id="clust1" class="cluster">
<title>cluster_activation</title>
<path fill="#ffffff" stroke="#999999" stroke-dasharray="5,2" d="M20,-1731.24C20,-1731.24 432,-1731.24 432,-1731.24 438,-1731.24 444,-1737.24 444,-1743.24 444,-1743.24 444,-1942.12 444,-1942.12 444,-1948.12 438,-1954.12 432,-1954.12 432,-1954.12 20,-1954.12 20,-1954.12 14,-1954.12 8,-1948.12 8,-1942.12 8,-1942.12 8,-1743.24 8,-1743.24 8,-1737.24 14,-1731.24 20,-1731.24"/>
<text xml:space="preserve" text-anchor="middle" x="226" y="-1939.67" font-family="Microsoft YaHei" font-size="11.00" fill="#333333">阶段一：人工下令并启动</text>
</g>
<g id="clust2" class="cluster">
<title>cluster_diagnosis</title>
<path fill="#ffffff" stroke="#999999" stroke-dasharray="5,2" d="M24,-8C24,-8 750,-8 750,-8 756,-8 762,-14 762,-20 762,-20 762,-1711.24 762,-1711.24 762,-1717.24 756,-1723.24 750,-1723.24 750,-1723.24 24,-1723.24 24,-1723.24 18,-1723.24 12,-1717.24 12,-1711.24 12,-1711.24 12,-20 12,-20 12,-14 18,-8 24,-8"/>
<text xml:space="preserve" text-anchor="middle" x="387" y="-1708.79" font-family="Microsoft YaHei" font-size="11.00" fill="#333333">阶段二：分层诊断与升级</text>
</g>
<!-- rule_order&#45;&gt;trigger -->
<!-- trigger&#45;&gt;activate -->
<g id="edge2" class="edge">
<title>trigger&#45;&gt;activate</title>
<path fill="none" stroke="#444444" stroke-width="1.15" d="M226,-1851.67C226,-1851.67 226,-1812.48 226,-1812.48"/>
<polygon fill="#444444" stroke="#444444" stroke-width="1.15" points="228.52,-1812.48 226,-1805.28 223.48,-1812.48 228.52,-1812.48"/>
</g>
<!-- activate&#45;&gt;check_task -->
<g id="edge3" class="edge">
<title>activate&#45;&gt;check_task</title>
<path fill="none" stroke="#444444" stroke-width="1.15" d="M226,-1750.68C226,-1750.68 226,-1689.39 226,-1689.39"/>
<polygon fill="#444444" stroke="#444444" stroke-width="1.15" points="228.52,-1689.39 226,-1682.19 223.48,-1689.39 228.52,-1689.39"/>
</g>
<!-- check_task&#45;&gt;task_sufficient -->
<g id="edge4" class="edge">
<title>check_task&#45;&gt;task_sufficient</title>
<path fill="none" stroke="#444444" stroke-width="1.15" d="M226,-1632.26C226,-1632.26 226,-1592.88 226,-1592.88"/>
<polygon fill="#444444" stroke="#444444" stroke-width="1.15" points="228.52,-1592.88 226,-1585.68 223.48,-1592.88 228.52,-1592.88"/>
</g>
<!-- task_sufficient&#45;&gt;escalate_task -->
<g id="edge6" class="edge">
<title>task_sufficient&#45;&gt;escalate_task</title>
<path fill="none" stroke="#444444" stroke-width="1.15" d="M226,-1505.6C226,-1505.6 226,-1466.63 226,-1466.63"/>
<polygon fill="#444444" stroke="#444444" stroke-width="1.15" points="228.52,-1466.63 226,-1459.43 223.48,-1466.63 228.52,-1466.63"/>
<text xml:space="preserve" text-anchor="middle" x="221.5" y="-1490.31" font-family="Microsoft YaHei" font-size="9.00" fill="#333333">否</text>
</g>
<!-- task_sufficient&#45;&gt;fix_task -->
<g id="edge5" class="edge">
<title>task_sufficient&#45;&gt;fix_task</title>
<path fill="none" stroke="#444444" stroke-width="1.15" d="M389.55,-1545C389.55,-1545 417.87,-1545 417.87,-1545"/>
<polygon fill="#444444" stroke="#444444" stroke-width="1.15" points="417.87,-1547.52 425.07,-1545 417.87,-1542.48 417.87,-1547.52"/>
<text xml:space="preserve" text-anchor="middle" x="399.21" y="-1549.2" font-family="Microsoft YaHei" font-size="9.00" fill="#333333">是</text>
</g>
<!-- escalate_task&#45;&gt;check_project -->
<g id="edge7" class="edge">
<title>escalate_task&#45;&gt;check_project</title>
<path fill="none" stroke="#444444" stroke-width="1.15" d="M226,-1394.32C226,-1394.32 226,-1355.47 226,-1355.47"/>
<polygon fill="#444444" stroke="#444444" stroke-width="1.15" points="228.52,-1355.47 226,-1348.27 223.48,-1355.47 228.52,-1355.47"/>
</g>
<!-- fix_task&#45;&gt;repair_task_bus -->
<g id="edge16" class="edge">
<title>fix_task&#45;&gt;repair_task_bus</title>
<path fill="none" stroke="#444444" stroke-width="1.15" d="M701.28,-1545C724.36,-1545 741,-1545 741,-1545"/>
</g>
<!-- fix_task&#45;&gt;fix_project -->
<!-- repair_task_bus&#45;&gt;repair_project_bus -->
<g id="edge20" class="edge">
<title>repair_task_bus&#45;&gt;repair_project_bus</title>
<path fill="none" stroke="#444444" stroke-width="1.15" d="M741,-1544.84C741,-1544.84 741,-1212.08 741,-1212.08"/>
</g>
<!-- repair_project_bus&#45;&gt;repair_scope_bus -->
<g id="edge21" class="edge">
<title>repair_project_bus&#45;&gt;repair_scope_bus</title>
<path fill="none" stroke="#444444" stroke-width="1.15" d="M741,-1212.08C741,-1212.08 741,-1086.04 741,-1086.04"/>
</g>
<!-- repair_scope_bus&#45;&gt;repair_global_bus -->
<g id="edge22" class="edge">
<title>repair_scope_bus&#45;&gt;repair_global_bus</title>
<path fill="none" stroke="#444444" stroke-width="1.15" d="M741,-1086.04C741,-1086.04 741,-851.96 741,-851.96"/>
</g>
<!-- repair_global_bus&#45;&gt;repair_exit_bus -->
<g id="edge23" class="edge">
<title>repair_global_bus&#45;&gt;repair_exit_bus</title>
<path fill="none" stroke="#444444" stroke-width="1.15" d="M741,-851.96C741,-851.96 741,-736 741,-736"/>
</g>
<!-- repair_exit_bus&#45;&gt;prevention_plan -->
<g id="edge24" class="edge">
<title>repair_exit_bus&#45;&gt;prevention_plan</title>
<path fill="none" stroke="#444444" stroke-width="1.15" d="M741,-736C741,-736 408.22,-736 408.22,-736"/>
<polygon fill="#444444" stroke="#444444" stroke-width="1.15" points="408.22,-733.48 401.02,-736 408.22,-738.52 408.22,-733.48"/>
</g>
<!-- check_project&#45;&gt;project_sufficient -->
<g id="edge8" class="edge">
<title>check_project&#45;&gt;project_sufficient</title>
<path fill="none" stroke="#444444" stroke-width="1.15" d="M226,-1298.1C226,-1298.1 226,-1259.01 226,-1259.01"/>
<polygon fill="#444444" stroke="#444444" stroke-width="1.15" points="228.52,-1259.01 226,-1251.81 223.48,-1259.01 228.52,-1259.01"/>
</g>
<!-- project_sufficient&#45;&gt;fix_project -->
<g id="edge9" class="edge">
<title>project_sufficient&#45;&gt;fix_project</title>
<path fill="none" stroke="#444444" stroke-width="1.15" d="M379.18,-1212C379.18,-1212 417.92,-1212 417.92,-1212"/>
<polygon fill="#444444" stroke="#444444" stroke-width="1.15" points="417.92,-1214.52 425.12,-1212 417.92,-1209.48 417.92,-1214.52"/>
<text xml:space="preserve" text-anchor="middle" x="394.05" y="-1216.2" font-family="Microsoft YaHei" font-size="9.00" fill="#333333">是</text>
</g>
<!-- project_sufficient&#45;&gt;recurrence -->
<g id="edge10" class="edge">
<title>project_sufficient&#45;&gt;recurrence</title>
<path fill="none" stroke="#444444" stroke-width="1.15" d="M226,-1174.26C226,-1174.26 226,-1134.96 226,-1134.96"/>
<polygon fill="#444444" stroke="#444444" stroke-width="1.15" points="228.52,-1134.96 226,-1127.76 223.48,-1134.96 228.52,-1134.96"/>
<text xml:space="preserve" text-anchor="middle" x="221.5" y="-1158.81" font-family="Microsoft YaHei" font-size="9.00" fill="#333333">否</text>
</g>
<!-- fix_project&#45;&gt;repair_project_bus -->
<g id="edge17" class="edge">
<title>fix_project&#45;&gt;repair_project_bus</title>
<path fill="none" stroke="#444444" stroke-width="1.15" d="M701.28,-1212C724.36,-1212 741,-1212 741,-1212"/>
</g>
<!-- fix_project&#45;&gt;local_scope -->
<!-- recurrence&#45;&gt;local_scope -->
<g id="edge11" class="edge">
<title>recurrence&#45;&gt;local_scope</title>
<path fill="none" stroke="#444444" stroke-width="1.15" d="M390.05,-1086C390.05,-1086 417.79,-1086 417.79,-1086"/>
<polygon fill="#444444" stroke="#444444" stroke-width="1.15" points="417.79,-1088.52 424.99,-1086 417.79,-1083.48 417.79,-1088.52"/>
<text xml:space="preserve" text-anchor="middle" x="410.67" y="-1077.45" font-family="Microsoft YaHei" font-size="9.00" fill="#333333">不可能</text>
</g>
<!-- recurrence&#45;&gt;check_global -->
<g id="edge12" class="edge">
<title>recurrence&#45;&gt;check_global</title>
<path fill="none" stroke="#444444" stroke-width="1.15" d="M226,-1046.05C226,-1046.05 226,-1006.72 226,-1006.72"/>
<polygon fill="#444444" stroke="#444444" stroke-width="1.15" points="228.52,-1006.72 226,-999.52 223.48,-1006.72 228.52,-1006.72"/>
<text xml:space="preserve" text-anchor="middle" x="217" y="-1030.59" font-family="Microsoft YaHei" font-size="9.00" fill="#333333">可能</text>
</g>
<!-- local_scope&#45;&gt;repair_scope_bus -->
<g id="edge18" class="edge">
<title>local_scope&#45;&gt;repair_scope_bus</title>
<path fill="none" stroke="#444444" stroke-width="1.15" d="M701.28,-1086C724.36,-1086 741,-1086 741,-1086"/>
</g>
<!-- local_scope&#45;&gt;fix_global -->
<!-- check_global&#45;&gt;global_found -->
<g id="edge13" class="edge">
<title>check_global&#45;&gt;global_found</title>
<path fill="none" stroke="#444444" stroke-width="1.15" d="M226,-938.06C226,-938.06 226,-898.56 226,-898.56"/>
<polygon fill="#444444" stroke="#444444" stroke-width="1.15" points="228.52,-898.56 226,-891.36 223.48,-898.56 228.52,-898.56"/>
</g>
<!-- global_found&#45;&gt;fix_global -->
<g id="edge14" class="edge">
<title>global_found&#45;&gt;fix_global</title>
<path fill="none" stroke="#444444" stroke-width="1.15" d="M371.79,-852C371.79,-852 417.76,-852 417.76,-852"/>
<polygon fill="#444444" stroke="#444444" stroke-width="1.15" points="417.76,-854.52 424.96,-852 417.76,-849.48 417.76,-854.52"/>
<text xml:space="preserve" text-anchor="middle" x="385.78" y="-856.2" font-family="Microsoft YaHei" font-size="9.00" fill="#333333">找到</text>
</g>
<!-- global_found&#45;&gt;prevention_plan -->
<g id="edge15" class="edge">
<title>global_found&#45;&gt;prevention_plan</title>
<path fill="none" stroke="#444444" stroke-width="1.15" d="M226,-813.99C226,-813.99 226,-774.91 226,-774.91"/>
<polygon fill="#444444" stroke="#444444" stroke-width="1.15" points="228.52,-774.91 226,-767.71 223.48,-774.91 228.52,-774.91"/>
<text xml:space="preserve" text-anchor="middle" x="212.5" y="-798.65" font-family="Microsoft YaHei" font-size="9.00" fill="#333333">未找到</text>
</g>
<!-- fix_global&#45;&gt;repair_global_bus -->
<g id="edge19" class="edge">
<title>fix_global&#45;&gt;repair_global_bus</title>
<path fill="none" stroke="#444444" stroke-width="1.15" d="M701.28,-852C724.36,-852 741,-852 741,-852"/>
</g>
<!-- prevention_plan&#45;&gt;plan_decision -->
<g id="edge25" class="edge">
<title>prevention_plan&#45;&gt;plan_decision</title>
<path fill="none" stroke="#444444" stroke-width="1.15" d="M226,-705.9C226,-705.9 226,-666.83 226,-666.83"/>
<polygon fill="#444444" stroke="#444444" stroke-width="1.15" points="228.52,-666.83 226,-659.63 223.48,-666.83 228.52,-666.83"/>
</g>
<!-- plan_decision&#45;&gt;continue_decision -->
<g id="edge26" class="edge">
<title>plan_decision&#45;&gt;continue_decision</title>
<path fill="none" stroke="#444444" stroke-width="1.15" d="M226,-598.04C226,-598.04 226,-558.81 226,-558.81"/>
<polygon fill="#444444" stroke="#444444" stroke-width="1.15" points="228.52,-558.81 226,-551.61 223.48,-558.81 228.52,-558.81"/>
</g>
<!-- continue_decision&#45;&gt;stop -->
<g id="edge27" class="edge">
<title>continue_decision&#45;&gt;stop</title>
<path fill="none" stroke="#444444" stroke-width="1.15" d="M342.23,-516C342.23,-516 436.32,-516 436.32,-516"/>
<polygon fill="#444444" stroke="#444444" stroke-width="1.15" points="436.32,-518.52 443.52,-516 436.32,-513.48 436.32,-518.52"/>
<text xml:space="preserve" text-anchor="middle" x="375.77" y="-520.2" font-family="Microsoft YaHei" font-size="9.00" fill="#333333">不继续</text>
</g>
<!-- continue_decision&#45;&gt;reverify -->
<g id="edge28" class="edge">
<title>continue_decision&#45;&gt;reverify</title>
<path fill="none" stroke="#444444" stroke-width="1.15" d="M226,-482.73C226,-482.73 226,-443.59 226,-443.59"/>
<polygon fill="#444444" stroke="#444444" stroke-width="1.15" points="228.52,-443.59 226,-436.39 223.48,-443.59 228.52,-443.59"/>
<text xml:space="preserve" text-anchor="middle" x="217" y="-467.36" font-family="Microsoft YaHei" font-size="9.00" fill="#333333">继续</text>
</g>
<!-- reverify&#45;&gt;verify_passed -->
<g id="edge29" class="edge">
<title>reverify&#45;&gt;verify_passed</title>
<path fill="none" stroke="#444444" stroke-width="1.15" d="M226,-381.65C226,-381.65 226,-342.78 226,-342.78"/>
<polygon fill="#444444" stroke="#444444" stroke-width="1.15" points="228.52,-342.78 226,-335.58 223.48,-342.78 228.52,-342.78"/>
</g>
<!-- verify_passed&#45;&gt;reusable -->
<g id="edge33" class="edge">
<title>verify_passed&#45;&gt;reusable</title>
<path fill="none" stroke="#444444" stroke-width="1.15" d="M226,-257.98C226,-257.98 226,-218.65 226,-218.65"/>
<polygon fill="#444444" stroke="#444444" stroke-width="1.15" points="228.52,-218.65 226,-211.45 223.48,-218.65 228.52,-218.65"/>
<text xml:space="preserve" text-anchor="middle" x="217" y="-242.52" font-family="Microsoft YaHei" font-size="9.00" fill="#333333">通过</text>
</g>
<!-- verify_passed&#45;&gt;verify_return_bottom -->
<g id="edge30" class="edge">
<title>verify_passed&#45;&gt;verify_return_bottom</title>
<path fill="none" stroke="#444444" stroke-width="1.15" stroke-dasharray="5,2" d="M383.01,-296C553.57,-296 802,-296 802,-296"/>
<text xml:space="preserve" text-anchor="middle" x="579.01" y="-300.2" font-family="Microsoft YaHei" font-size="9.00" fill="#333333">未通过</text>
</g>
<!-- reusable&#45;&gt;local -->
<g id="edge34" class="edge">
<title>reusable&#45;&gt;local</title>
<path fill="none" stroke="#444444" stroke-width="1.15" d="M388.76,-171C388.76,-171 444.87,-171 444.87,-171"/>
<polygon fill="#444444" stroke="#444444" stroke-width="1.15" points="444.87,-173.52 452.07,-171 444.87,-168.48 444.87,-173.52"/>
<text xml:space="preserve" text-anchor="middle" x="407.82" y="-175.2" font-family="Microsoft YaHei" font-size="9.00" fill="#333333">不能</text>
</g>
<!-- reusable&#45;&gt;central -->
<g id="edge35" class="edge">
<title>reusable&#45;&gt;central</title>
<path fill="none" stroke="#444444" stroke-width="1.15" d="M226,-131.26C226,-131.26 226,-92.2 226,-92.2"/>
<polygon fill="#444444" stroke="#444444" stroke-width="1.15" points="228.52,-92.2 226,-85 223.48,-92.2 228.52,-92.2"/>
<text xml:space="preserve" text-anchor="middle" x="221.5" y="-115.93" font-family="Microsoft YaHei" font-size="9.00" fill="#333333">能</text>
</g>
<!-- verify_return_top&#45;&gt;activate -->
<g id="edge32" class="edge">
<title>verify_return_top&#45;&gt;activate</title>
<path fill="none" stroke="#444444" stroke-width="1.15" stroke-dasharray="5,2" d="M802,-1777C802,-1777 408.15,-1777 408.15,-1777"/>
<polygon fill="#444444" stroke="#444444" stroke-width="1.15" points="408.15,-1774.48 400.95,-1777 408.15,-1779.52 408.15,-1774.48"/>
</g>
<!-- verify_return_bottom&#45;&gt;verify_return_top -->
<g id="edge31" class="edge">
<title>verify_return_bottom&#45;&gt;verify_return_top</title>
<path fill="none" stroke="#444444" stroke-width="1.15" stroke-dasharray="5,2" d="M802,-295.92C802,-295.92 802,-1777.16 802,-1777.16"/>
</g>
<!-- rule_order -->
<g id="node1" class="node">
<title>rule_order</title>
<polygon fill="#f7f7f7" stroke="#777777" stroke-width="1.2" stroke-dasharray="5,2" points="409.03,-2010.78 36.97,-2010.78 36.97,-1962.12 415.03,-1962.12 415.03,-2004.78 409.03,-2010.78"/>
<polyline fill="none" stroke="#777777" stroke-width="1.2" stroke-dasharray="5,2" points="409.03,-2010.78 409.03,-2004.78"/>
<polyline fill="none" stroke="#777777" stroke-width="1.2" stroke-dasharray="5,2" points="415.03,-2004.78 409.03,-2004.78"/>
<text xml:space="preserve" text-anchor="middle" x="226" y="-1991.2" font-family="Microsoft YaHei" font-size="10.00" fill="#111111">制度平时自上而下生效：总部制度 → 车间机制 → 当前生产任务</text>
<text xml:space="preserve" text-anchor="middle" x="226" y="-1976.95" font-family="Microsoft YaHei" font-size="10.00" fill="#111111">董事长下令后从现场向上调查：当前生产任务 → 车间机制 → 必要时检查总部层</text>
</g>
<!-- trigger -->
<g id="node2" class="node">
<title>trigger</title>
<ellipse fill="#f7f7f7" stroke="#333333" stroke-width="1.2" cx="226" cy="-1881.6" rx="198" ry="29.52"/>
<text xml:space="preserve" text-anchor="middle" x="226" y="-1878.84" font-family="Microsoft YaHei" font-size="10.80" fill="#111111">董事长下令：启动集团调查</text>
</g>
<!-- activate -->
<g id="node3" class="node">
<title>activate</title>
<path fill="#e8e8e8" stroke="#333333" stroke-width="1.5" d="M386.8,-1803.08C386.8,-1803.08 65.2,-1803.08 65.2,-1803.08 59.2,-1803.08 53.2,-1797.08 53.2,-1791.08 53.2,-1791.08 53.2,-1763.24 53.2,-1763.24 53.2,-1757.24 59.2,-1751.24 65.2,-1751.24 65.2,-1751.24 386.8,-1751.24 386.8,-1751.24 392.8,-1751.24 398.8,-1757.24 398.8,-1763.24 398.8,-1763.24 398.8,-1791.08 398.8,-1791.08 398.8,-1797.08 392.8,-1803.08 386.8,-1803.08"/>
<text xml:space="preserve" text-anchor="middle" x="226" y="-1774.4" font-family="Microsoft YaHei" font-size="10.80" fill="#111111">启动集团调查，暂停继续生产</text>
</g>
<!-- check_task -->
<g id="node4" class="node">
<title>check_task</title>
<path fill="#ffffff" stroke="#333333" stroke-width="1.2" d="M343.6,-1680.24C343.6,-1680.24 108.4,-1680.24 108.4,-1680.24 102.4,-1680.24 96.4,-1674.24 96.4,-1668.24 96.4,-1668.24 96.4,-1644.72 96.4,-1644.72 96.4,-1638.72 102.4,-1632.72 108.4,-1632.72 108.4,-1632.72 343.6,-1632.72 343.6,-1632.72 349.6,-1632.72 355.6,-1638.72 355.6,-1644.72 355.6,-1644.72 355.6,-1668.24 355.6,-1668.24 355.6,-1674.24 349.6,-1680.24 343.6,-1680.24"/>
<text xml:space="preserve" text-anchor="middle" x="226" y="-1653.72" font-family="Microsoft YaHei" font-size="10.80" fill="#111111">先检查当前生产任务</text>
</g>
<!-- task_sufficient -->
<g id="node5" class="node">
<title>task_sufficient</title>
<polygon fill="#ffffff" stroke="#333333" stroke-width="1.2" points="226,-1583.72 64,-1544.84 226,-1505.96 388,-1544.84 226,-1583.72"/>
<text xml:space="preserve" text-anchor="middle" x="226" y="-1549.58" font-family="Microsoft YaHei" font-size="10.80" fill="#111111">当前生产任务足以解释并可验证，</text>
<text xml:space="preserve" text-anchor="middle" x="226" y="-1534.58" font-family="Microsoft YaHei" font-size="10.80" fill="#111111">而且不是重复纠正？</text>
</g>
<!-- escalate_task -->
<g id="node6" class="node">
<title>escalate_task</title>
<path fill="#e8e8e8" stroke="#333333" stroke-width="1.5" d="M408.4,-1456.96C408.4,-1456.96 43.6,-1456.96 43.6,-1456.96 37.6,-1456.96 31.6,-1450.96 31.6,-1444.96 31.6,-1444.96 31.6,-1407.04 31.6,-1407.04 31.6,-1401.04 37.6,-1395.04 43.6,-1395.04 43.6,-1395.04 408.4,-1395.04 408.4,-1395.04 414.4,-1395.04 420.4,-1401.04 420.4,-1407.04 420.4,-1407.04 420.4,-1444.96 420.4,-1444.96 420.4,-1450.96 414.4,-1456.96 408.4,-1456.96"/>
<text xml:space="preserve" text-anchor="middle" x="226" y="-1430.74" font-family="Microsoft YaHei" font-size="10.80" fill="#111111">继续向上；若同类问题在声称修复后再次出现，</text>
<text xml:space="preserve" text-anchor="middle" x="226" y="-1415.74" font-family="Microsoft YaHei" font-size="10.80" fill="#111111">先重建失败序列，当前生产任务不得单独结案</text>
</g>
<!-- fix_task -->
<g id="node7" class="node">
<title>fix_task</title>
<path fill="#f2f2f2" stroke="#333333" stroke-width="1.2" d="M688.8,-1574.36C688.8,-1574.36 439.2,-1574.36 439.2,-1574.36 433.2,-1574.36 427.2,-1568.36 427.2,-1562.36 427.2,-1562.36 427.2,-1527.32 427.2,-1527.32 427.2,-1521.32 433.2,-1515.32 439.2,-1515.32 439.2,-1515.32 688.8,-1515.32 688.8,-1515.32 694.8,-1515.32 700.8,-1521.32 700.8,-1527.32 700.8,-1527.32 700.8,-1562.36 700.8,-1562.36 700.8,-1568.36 694.8,-1574.36 688.8,-1574.36"/>
<text xml:space="preserve" text-anchor="middle" x="564" y="-1549.58" font-family="Microsoft YaHei" font-size="10.80" fill="#111111">当前生产任务能解释：</text>
<text xml:space="preserve" text-anchor="middle" x="564" y="-1534.58" font-family="Microsoft YaHei" font-size="10.80" fill="#111111">澄清董事长指示、顺序、授权或计划</text>
</g>
<!-- repair_task_bus -->
<!-- repair_project_bus -->
<!-- repair_scope_bus -->
<!-- repair_global_bus -->
<!-- repair_exit_bus -->
<!-- check_project -->
<g id="node13" class="node">
<title>check_project</title>
<path fill="#ffffff" stroke="#333333" stroke-width="1.2" d="M343.6,-1346.04C343.6,-1346.04 108.4,-1346.04 108.4,-1346.04 102.4,-1346.04 96.4,-1340.04 96.4,-1334.04 96.4,-1334.04 96.4,-1310.52 96.4,-1310.52 96.4,-1304.52 102.4,-1298.52 108.4,-1298.52 108.4,-1298.52 343.6,-1298.52 343.6,-1298.52 349.6,-1298.52 355.6,-1304.52 355.6,-1310.52 355.6,-1310.52 355.6,-1334.04 355.6,-1334.04 355.6,-1340.04 349.6,-1346.04 343.6,-1346.04"/>
<text xml:space="preserve" text-anchor="middle" x="226" y="-1319.52" font-family="Microsoft YaHei" font-size="10.80" fill="#111111">再检查车间机制</text>
</g>
<!-- project_sufficient -->
<g id="node14" class="node">
<title>project_sufficient</title>
<polygon fill="#ffffff" stroke="#333333" stroke-width="1.2" points="226,-1249.52 74.8,-1212.08 226,-1174.64 377.2,-1212.08 226,-1249.52"/>
<text xml:space="preserve" text-anchor="middle" x="226" y="-1209.32" font-family="Microsoft YaHei" font-size="10.80" fill="#111111">车间机制足以解释问题？</text>
</g>
<!-- fix_project -->
<g id="node15" class="node">
<title>fix_project</title>
<path fill="#f2f2f2" stroke="#333333" stroke-width="1.2" d="M688.8,-1241.6C688.8,-1241.6 439.2,-1241.6 439.2,-1241.6 433.2,-1241.6 427.2,-1235.6 427.2,-1229.6 427.2,-1229.6 427.2,-1194.56 427.2,-1194.56 427.2,-1188.56 433.2,-1182.56 439.2,-1182.56 439.2,-1182.56 688.8,-1182.56 688.8,-1182.56 694.8,-1182.56 700.8,-1188.56 700.8,-1194.56 700.8,-1194.56 700.8,-1229.6 700.8,-1229.6 700.8,-1235.6 694.8,-1241.6 688.8,-1241.6"/>
<text xml:space="preserve" text-anchor="middle" x="564" y="-1216.82" font-family="Microsoft YaHei" font-size="10.80" fill="#111111">车间机制能解释：</text>
<text xml:space="preserve" text-anchor="middle" x="564" y="-1201.82" font-family="Microsoft YaHei" font-size="10.80" fill="#111111">修正规章、机床、计划或质检</text>
</g>
<!-- recurrence -->
<g id="node16" class="node">
<title>recurrence</title>
<polygon fill="#ffffff" stroke="#333333" stroke-width="1.2" points="226,-1125.64 64,-1086.04 226,-1046.44 388,-1086.04 226,-1125.64"/>
<text xml:space="preserve" text-anchor="middle" x="226" y="-1090.78" font-family="Microsoft YaHei" font-size="10.80" fill="#111111">车间机制不能解释：问题可能</text>
<text xml:space="preserve" text-anchor="middle" x="226" y="-1075.78" font-family="Microsoft YaHei" font-size="10.80" fill="#111111">跨无关车间复发？</text>
</g>
<!-- local_scope -->
<g id="node17" class="node">
<title>local_scope</title>
<path fill="none" stroke="#333333" stroke-width="1.2" stroke-dasharray="5,2" d="M688.8,-1115.56C688.8,-1115.56 439.2,-1115.56 439.2,-1115.56 433.2,-1115.56 427.2,-1109.56 427.2,-1103.56 427.2,-1103.56 427.2,-1068.52 427.2,-1068.52 427.2,-1062.52 433.2,-1056.52 439.2,-1056.52 439.2,-1056.52 688.8,-1056.52 688.8,-1056.52 694.8,-1056.52 700.8,-1062.52 700.8,-1068.52 700.8,-1068.52 700.8,-1103.56 700.8,-1103.56 700.8,-1109.56 694.8,-1115.56 688.8,-1115.56"/>
<text xml:space="preserve" text-anchor="middle" x="564" y="-1090.78" font-family="Microsoft YaHei" font-size="10.80" fill="#111111">不需要检查总部层：</text>
<text xml:space="preserve" text-anchor="middle" x="564" y="-1075.78" font-family="Microsoft YaHei" font-size="10.80" fill="#111111">补充车间材料，不扩大调查范围</text>
</g>
<!-- check_global -->
<g id="node18" class="node">
<title>check_global</title>
<path fill="#ffffff" stroke="#333333" stroke-width="1.2" d="M368.8,-997.44C368.8,-997.44 83.2,-997.44 83.2,-997.44 77.2,-997.44 71.2,-991.44 71.2,-985.44 71.2,-985.44 71.2,-950.4 71.2,-950.4 71.2,-944.4 77.2,-938.4 83.2,-938.4 83.2,-938.4 368.8,-938.4 368.8,-938.4 374.8,-938.4 380.8,-944.4 380.8,-950.4 380.8,-950.4 380.8,-985.44 380.8,-985.44 380.8,-991.44 374.8,-997.44 368.8,-997.44"/>
<text xml:space="preserve" text-anchor="middle" x="226" y="-972.66" font-family="Microsoft YaHei" font-size="10.80" fill="#111111">可能跨车间复发：再检查总部制度、</text>
<text xml:space="preserve" text-anchor="middle" x="226" y="-957.66" font-family="Microsoft YaHei" font-size="10.80" fill="#111111">治理工作队或工具</text>
</g>
<!-- global_found -->
<g id="node19" class="node">
<title>global_found</title>
<polygon fill="#ffffff" stroke="#333333" stroke-width="1.2" points="226,-889.4 82,-851.96 226,-814.52 370,-851.96 226,-889.4"/>
<text xml:space="preserve" text-anchor="middle" x="226" y="-849.2" font-family="Microsoft YaHei" font-size="10.80" fill="#111111">找到可修复的总部原因？</text>
</g>
<!-- fix_global -->
<g id="node20" class="node">
<title>fix_global</title>
<path fill="#f2f2f2" stroke="#333333" stroke-width="1.2" d="M688.8,-881.48C688.8,-881.48 439.2,-881.48 439.2,-881.48 433.2,-881.48 427.2,-875.48 427.2,-869.48 427.2,-869.48 427.2,-834.44 427.2,-834.44 427.2,-828.44 433.2,-822.44 439.2,-822.44 439.2,-822.44 688.8,-822.44 688.8,-822.44 694.8,-822.44 700.8,-828.44 700.8,-834.44 700.8,-834.44 700.8,-869.48 700.8,-869.48 700.8,-875.48 694.8,-881.48 688.8,-881.48"/>
<text xml:space="preserve" text-anchor="middle" x="564" y="-856.7" font-family="Microsoft YaHei" font-size="10.80" fill="#111111">找到总部原因：</text>
<text xml:space="preserve" text-anchor="middle" x="564" y="-841.7" font-family="Microsoft YaHei" font-size="10.80" fill="#111111">修正制度、治理工作队或工具</text>
</g>
<!-- prevention_plan -->
<g id="node21" class="node">
<title>prevention_plan</title>
<path fill="#e8e8e8" stroke="#333333" stroke-width="1.5" d="M386.8,-765.52C386.8,-765.52 65.2,-765.52 65.2,-765.52 59.2,-765.52 53.2,-759.52 53.2,-753.52 53.2,-753.52 53.2,-718.48 53.2,-718.48 53.2,-712.48 59.2,-706.48 65.2,-706.48 65.2,-706.48 386.8,-706.48 386.8,-706.48 392.8,-706.48 398.8,-712.48 398.8,-718.48 398.8,-718.48 398.8,-753.52 398.8,-753.52 398.8,-759.52 392.8,-765.52 386.8,-765.52"/>
<text xml:space="preserve" text-anchor="middle" x="226" y="-740.74" font-family="Microsoft YaHei" font-size="10.80" fill="#111111">找出为什么还会再犯；</text>
<text xml:space="preserve" text-anchor="middle" x="226" y="-725.74" font-family="Microsoft YaHei" font-size="10.80" fill="#111111">定下改法和复查办法</text>
</g>
<!-- plan_decision -->
<g id="node22" class="node">
<title>plan_decision</title>
<path fill="#f2f2f2" stroke="#333333" stroke-width="1.2" d="M372.4,-657.48C372.4,-657.48 79.6,-657.48 79.6,-657.48 73.6,-657.48 67.6,-651.48 67.6,-645.48 67.6,-645.48 67.6,-610.44 67.6,-610.44 67.6,-604.44 73.6,-598.44 79.6,-598.44 79.6,-598.44 372.4,-598.44 372.4,-598.44 378.4,-598.44 384.4,-604.44 384.4,-610.44 384.4,-610.44 384.4,-645.48 384.4,-645.48 384.4,-651.48 378.4,-657.48 372.4,-657.48"/>
<text xml:space="preserve" text-anchor="middle" x="226" y="-632.7" font-family="Microsoft YaHei" font-size="10.80" fill="#111111">处理生产计划影响和需要记录的事项；</text>
<text xml:space="preserve" text-anchor="middle" x="226" y="-617.7" font-family="Microsoft YaHei" font-size="10.80" fill="#111111">材料不足时不得继续</text>
</g>
<!-- continue_decision -->
<g id="node23" class="node">
<title>continue_decision</title>
<polygon fill="#ffffff" stroke="#333333" stroke-width="1.2" points="226,-549.44 110.8,-516.32 226,-483.2 341.2,-516.32 226,-549.44"/>
<text xml:space="preserve" text-anchor="middle" x="226" y="-513.56" font-family="Microsoft YaHei" font-size="10.80" fill="#111111">材料充分并决定继续？</text>
</g>
<!-- stop -->
<g id="node24" class="node">
<title>stop</title>
<ellipse fill="#e8e8e8" stroke="#333333" stroke-width="1.2" cx="561" cy="-516.32" rx="115.2" ry="23.76"/>
<text xml:space="preserve" text-anchor="middle" x="561" y="-513.56" font-family="Microsoft YaHei" font-size="10.80" fill="#111111">停止：报告处理和记录结果</text>
</g>
<!-- reverify -->
<g id="node25" class="node">
<title>reverify</title>
<path fill="#e8e8e8" stroke="#333333" stroke-width="1.5" d="M376,-434.2C376,-434.2 76,-434.2 76,-434.2 70,-434.2 64,-428.2 64,-422.2 64,-422.2 64,-394.36 64,-394.36 64,-388.36 70,-382.36 76,-382.36 76,-382.36 376,-382.36 376,-382.36 382,-382.36 388,-388.36 388,-394.36 388,-394.36 388,-422.2 388,-422.2 388,-428.2 382,-434.2 376,-434.2"/>
<text xml:space="preserve" text-anchor="middle" x="226" y="-405.52" font-family="Microsoft YaHei" font-size="10.80" fill="#111111">继续：回车间重做，并跑同类复查</text>
</g>
<!-- verify_passed -->
<g id="node26" class="node">
<title>verify_passed</title>
<polygon fill="#ffffff" stroke="#333333" stroke-width="1.2" points="226,-333.36 71.2,-295.92 226,-258.48 380.8,-295.92 226,-333.36"/>
<text xml:space="preserve" text-anchor="middle" x="226" y="-293.16" font-family="Microsoft YaHei" font-size="10.80" fill="#111111">当前结果和复查都通过？</text>
</g>
<!-- reusable -->
<g id="node27" class="node">
<title>reusable</title>
<polygon fill="#ffffff" stroke="#333333" stroke-width="1.2" points="226,-209.48 64,-170.6 226,-131.72 388,-170.6 226,-209.48"/>
<text xml:space="preserve" text-anchor="middle" x="226" y="-167.84" font-family="Microsoft YaHei" font-size="10.80" fill="#111111">验证通过：改进能用于其他车间？</text>
</g>
<!-- local -->
<g id="node28" class="node">
<title>local</title>
<ellipse fill="#ffffff" stroke="#333333" stroke-width="1.2" cx="584" cy="-170.6" rx="129.6" ry="27.36"/>
<text xml:space="preserve" text-anchor="middle" x="584" y="-175.34" font-family="Microsoft YaHei" font-size="10.80" fill="#111111">只适用当前车间：</text>
<text xml:space="preserve" text-anchor="middle" x="584" y="-160.34" font-family="Microsoft YaHei" font-size="10.80" fill="#111111">留在车间本地</text>
</g>
<!-- central -->
<g id="node29" class="node">
<title>central</title>
<ellipse fill="#f2f2f2" stroke="#333333" stroke-width="1.2" cx="226" cy="-55.36" rx="129.6" ry="27.36"/>
<text xml:space="preserve" text-anchor="middle" x="226" y="-60.1" font-family="Microsoft YaHei" font-size="10.80" fill="#111111">可以供各车间复用：进入机床研发中心，</text>
<text xml:space="preserve" text-anchor="middle" x="226" y="-45.1" font-family="Microsoft YaHei" font-size="10.80" fill="#111111">再逐车间讨论</text>
</g>
<!-- verify_return_top -->
<!-- verify_return_bottom -->
</g>
</svg>
