<?xml version="1.0" encoding="UTF-8" standalone="no"?>
<!DOCTYPE svg PUBLIC "-//W3C//DTD SVG 1.1//EN"
 "http://www.w3.org/Graphics/SVG/1.1/DTD/svg11.dtd">
<!-- Generated by graphviz version 16.1.0 (0)
 -->
<!-- Title: SystemOverview Pages: 1 -->
<svg width="981pt" height="916pt"
 viewBox="0.00 0.00 981.00 916.00" xmlns="http://www.w3.org/2000/svg" xmlns:xlink="http://www.w3.org/1999/xlink">
<g id="graph0" class="graph" transform="scale(1 1) rotate(0) translate(27.36 888.96)">
<title>SystemOverview</title>
<polygon fill="#ffffff" stroke="none" points="-27.36,27.36 -27.36,-888.96 953.36,-888.96 953.36,27.36 -27.36,27.36"/>
<text xml:space="preserve" text-anchor="middle" x="463" y="-837" font-family="Microsoft YaHei, Noto Sans CJK SC, sans-serif" font-weight="bold" font-size="24.00" fill="#111111">项目智能治理系统总览</text>
<text xml:space="preserve" text-anchor="start" x="456.33" y="-804.8" font-family="Microsoft YaHei, Noto Sans CJK SC, sans-serif" font-size="24.00" fill="#111111"> </text>
<g id="clust1" class="cluster">
<title>cluster_target</title>
<path fill="#fafafa" stroke="#555555" d="M20,-8C20,-8 906,-8 906,-8 912,-8 918,-14 918,-20 918,-20 918,-633.08 918,-633.08 918,-639.08 912,-645.08 906,-645.08 906,-645.08 20,-645.08 20,-645.08 14,-645.08 8,-639.08 8,-633.08 8,-633.08 8,-20 8,-20 8,-14 14,-8 20,-8"/>
<text xml:space="preserve" text-anchor="start" x="462.72" y="-635.68" font-family="Microsoft YaHei, Noto Sans CJK SC, sans-serif" font-size="1.00" fill="#222222"> </text>
<text xml:space="preserve" text-anchor="middle" x="463" y="-617.68" font-family="Microsoft YaHei, Noto Sans CJK SC, sans-serif" font-weight="bold" font-size="16.00" fill="#222222">目标项目：本地治理</text>
<text xml:space="preserve" text-anchor="start" x="462.72" y="-606.48" font-family="Microsoft YaHei, Noto Sans CJK SC, sans-serif" font-size="1.00" fill="#222222"> </text>
</g>
<g id="clust2" class="cluster">
<title>cluster_memory</title>
<path fill="#ffffff" stroke="#777777" d="M42,-101.64C42,-101.64 884,-101.64 884,-101.64 890,-101.64 896,-107.64 896,-113.64 896,-113.64 896,-360.76 896,-360.76 896,-366.76 890,-372.76 884,-372.76 884,-372.76 42,-372.76 42,-372.76 36,-372.76 30,-366.76 30,-360.76 30,-360.76 30,-113.64 30,-113.64 30,-107.64 36,-101.64 42,-101.64"/>
<text xml:space="preserve" text-anchor="start" x="147.51" y="-363.36" font-family="Microsoft YaHei, Noto Sans CJK SC, sans-serif" font-size="1.00" fill="#333333"> </text>
<text xml:space="preserve" text-anchor="middle" x="148" y="-345.36" font-family="Microsoft YaHei, Noto Sans CJK SC, sans-serif" font-weight="bold" font-size="16.00" fill="#333333">项目记忆与连续性</text>
<text xml:space="preserve" text-anchor="start" x="147.51" y="-334.16" font-family="Microsoft YaHei, Noto Sans CJK SC, sans-serif" font-size="1.00" fill="#333333"> </text>
</g>
<!-- user&#45;&gt;global -->
<g id="edge30" class="edge">
<title>user&#45;&gt;global</title>
<path fill="none" stroke="#444444" stroke-width="1.15" d="M154,-746.34C154,-746.34 154,-711.42 154,-711.42"/>
<polygon fill="#444444" stroke="#444444" stroke-width="1.15" points="156.52,-711.42 154,-704.22 151.48,-711.42 156.52,-711.42"/>
</g>
<!-- central&#45;&gt;skill -->
<g id="edge31" class="edge">
<title>central&#45;&gt;skill</title>
<path fill="none" stroke="#444444" stroke-width="1.15" d="M369,-746.34C369,-746.34 369,-711.42 369,-711.42"/>
<polygon fill="#444444" stroke="#444444" stroke-width="1.15" points="371.52,-711.42 369,-704.22 366.48,-711.42 371.52,-711.42"/>
</g>
<!-- global&#45;&gt;skill -->
<g id="edge32" class="edge">
<title>global&#45;&gt;skill</title>
<path fill="none" stroke="#444444" stroke-width="1.15" d="M249.87,-678C249.87,-678 264.19,-678 264.19,-678"/>
<polygon fill="#444444" stroke="#444444" stroke-width="1.15" points="264.19,-680.52 271.39,-678 264.19,-675.48 264.19,-680.52"/>
</g>
<!-- global&#45;&gt;entry -->
<g id="edge33" class="edge">
<title>global&#45;&gt;entry</title>
<path fill="none" stroke="#444444" stroke-width="1.15" d="M154,-652.65C154,-652.65 154,-585.06 154,-585.06"/>
<polygon fill="#444444" stroke="#444444" stroke-width="1.15" points="156.52,-585.06 154,-577.86 151.48,-585.06 156.52,-585.06"/>
</g>
<!-- skill&#45;&gt;landing -->
<g id="edge34" class="edge">
<title>skill&#45;&gt;landing</title>
<path fill="none" stroke="#444444" stroke-width="1.15" d="M369,-652.65C369,-652.65 369,-585.06 369,-585.06"/>
<polygon fill="#444444" stroke="#444444" stroke-width="1.15" points="371.52,-585.06 369,-577.86 366.48,-585.06 371.52,-585.06"/>
</g>
<!-- entry&#45;&gt;landing -->
<!-- entry&#45;&gt;daily -->
<g id="edge15" class="edge">
<title>entry&#45;&gt;daily</title>
<path fill="none" stroke="#444444" stroke-width="1.15" d="M154,-523.5C154,-523.5 154,-488.49 154,-488.49"/>
<polygon fill="#444444" stroke="#444444" stroke-width="1.15" points="156.52,-488.49 154,-481.29 151.48,-488.49 156.52,-488.49"/>
</g>
<!-- landing&#45;&gt;diagnosis -->
<!-- landing&#45;&gt;validation -->
<g id="edge16" class="edge">
<title>landing&#45;&gt;validation</title>
<path fill="none" stroke="#444444" stroke-width="1.15" stroke-dasharray="5,2" d="M369,-523.5C369,-523.5 369,-488.49 369,-488.49"/>
<polygon fill="#444444" stroke="#444444" stroke-width="1.15" points="371.52,-488.49 369,-481.29 366.48,-488.49 371.52,-488.49"/>
</g>
<!-- diagnosis&#45;&gt;sync -->
<g id="edge19" class="edge">
<title>diagnosis&#45;&gt;sync</title>
<path fill="none" stroke="#444444" stroke-width="1.15" stroke-dasharray="5,2" d="M679.87,-550C679.87,-550 694.19,-550 694.19,-550"/>
<polygon fill="#444444" stroke="#444444" stroke-width="1.15" points="694.19,-552.52 701.39,-550 694.19,-547.48 694.19,-552.52"/>
</g>
<!-- diagnosis&#45;&gt;validation -->
<g id="edge17" class="edge">
<title>diagnosis&#45;&gt;validation</title>
<path fill="none" stroke="#444444" stroke-width="1.15" stroke-dasharray="5,2" d="M584,-523.5C584,-523.5 584,-488.49 584,-488.49"/>
<polygon fill="#444444" stroke="#444444" stroke-width="1.15" points="586.52,-488.49 584,-481.29 581.48,-488.49 586.52,-488.49"/>
</g>
<!-- sync&#45;&gt;validation -->
<g id="edge18" class="edge">
<title>sync&#45;&gt;validation</title>
<path fill="none" stroke="#444444" stroke-width="1.15" stroke-dasharray="5,2" d="M799,-523.5C799,-523.5 799,-488.49 799,-488.49"/>
<polygon fill="#444444" stroke="#444444" stroke-width="1.15" points="801.52,-488.49 799,-481.29 796.48,-488.49 801.52,-488.49"/>
</g>
<!-- daily&#45;&gt;validation -->
<!-- daily&#45;&gt;memory_turn_left -->
<g id="edge20" class="edge">
<title>daily&#45;&gt;memory_turn_left</title>
<path fill="none" stroke="#444444" stroke-width="1.15" d="M154,-426.85C154,-406.4 154,-381.48 154,-381.48"/>
</g>
<!-- memory_turn_left&#45;&gt;memory_turn_center -->
<g id="edge21" class="edge">
<title>memory_turn_left&#45;&gt;memory_turn_center</title>
<path fill="none" stroke="#444444" stroke-width="1.15" d="M154,-381C154,-381 463,-381 463,-381"/>
</g>
<!-- memory_turn_center&#45;&gt;memory_entry -->
<g id="edge22" class="edge">
<title>memory_turn_center&#45;&gt;memory_entry</title>
<path fill="none" stroke="#444444" stroke-width="1.15" d="M463,-381.48C463,-381.48 463,-316.89 463,-316.89"/>
<polygon fill="#444444" stroke="#444444" stroke-width="1.15" points="465.52,-316.89 463,-309.69 460.48,-316.89 465.52,-316.89"/>
</g>
<!-- memory_entry&#45;&gt;memory_balance_right -->
<!-- memory_entry&#45;&gt;memory_anchor_mid -->
<g id="edge1" class="edge">
<title>memory_entry&#45;&gt;memory_anchor_mid</title>
<path fill="none" stroke="#444444" stroke-width="1.15" stroke-dasharray="1,5" d="M463,-259.5C463,-239.46 463,-214.32 463,-214.32"/>
</g>
<!-- memory_balance_left&#45;&gt;memory_entry -->
<!-- memory_anchor_1&#45;&gt;memory_anchor_2 -->
<g id="edge2" class="edge">
<title>memory_anchor_1&#45;&gt;memory_anchor_2</title>
<path fill="none" stroke="#444444" stroke-width="1.15" stroke-dasharray="1,5" d="M173,-214C173,-214 366,-214 366,-214"/>
</g>
<!-- memory_anchor_1&#45;&gt;current_plan -->
<g id="edge6" class="edge">
<title>memory_anchor_1&#45;&gt;current_plan</title>
<path fill="none" stroke="#444444" stroke-width="1.15" stroke-dasharray="1,5" d="M173,-214.32C173,-214.32 173,-189.25 173,-169.07"/>
</g>
<!-- memory_anchor_2&#45;&gt;memory_anchor_mid -->
<g id="edge3" class="edge">
<title>memory_anchor_2&#45;&gt;memory_anchor_mid</title>
<path fill="none" stroke="#444444" stroke-width="1.15" stroke-dasharray="1,5" d="M366,-214C366,-214 463,-214 463,-214"/>
</g>
<!-- memory_anchor_2&#45;&gt;vocabulary -->
<g id="edge7" class="edge">
<title>memory_anchor_2&#45;&gt;vocabulary</title>
<path fill="none" stroke="#444444" stroke-width="1.15" stroke-dasharray="1,5" d="M366,-214.32C366,-214.32 366,-189.25 366,-169.07"/>
</g>
<!-- memory_anchor_mid&#45;&gt;memory_anchor_3 -->
<g id="edge4" class="edge">
<title>memory_anchor_mid&#45;&gt;memory_anchor_3</title>
<path fill="none" stroke="#444444" stroke-width="1.15" stroke-dasharray="1,5" d="M463,-214C463,-214 559,-214 559,-214"/>
</g>
<!-- memory_anchor_3&#45;&gt;memory_anchor_4 -->
<g id="edge5" class="edge">
<title>memory_anchor_3&#45;&gt;memory_anchor_4</title>
<path fill="none" stroke="#444444" stroke-width="1.15" stroke-dasharray="1,5" d="M559,-214C559,-214 752,-214 752,-214"/>
</g>
<!-- memory_anchor_3&#45;&gt;project_log -->
<g id="edge8" class="edge">
<title>memory_anchor_3&#45;&gt;project_log</title>
<path fill="none" stroke="#444444" stroke-width="1.15" stroke-dasharray="1,5" d="M559,-214.32C559,-214.32 559,-189.25 559,-169.07"/>
</g>
<!-- memory_anchor_4&#45;&gt;durable_files -->
<g id="edge9" class="edge">
<title>memory_anchor_4&#45;&gt;durable_files</title>
<path fill="none" stroke="#444444" stroke-width="1.15" stroke-dasharray="1,5" d="M752,-214.32C752,-214.32 752,-189.25 752,-169.07"/>
</g>
<!-- current_plan&#45;&gt;vocabulary -->
<!-- current_plan&#45;&gt;scope_note -->
<!-- vocabulary&#45;&gt;project_log -->
<!-- vocabulary&#45;&gt;scope_note -->
<!-- project_log&#45;&gt;durable_files -->
<!-- project_log&#45;&gt;scope_note -->
<!-- durable_files&#45;&gt;scope_note -->
<!-- user -->
<g id="node1" class="node">
<title>user</title>
<ellipse fill="#ffffff" stroke="#333333" stroke-width="1.5" cx="154" cy="-771.52" rx="95.4" ry="24.48"/>
<text xml:space="preserve" text-anchor="middle" x="154" y="-768.28" font-family="Microsoft YaHei, Noto Sans CJK SC, sans-serif" font-size="10.80" fill="#111111">用户</text>
</g>
<!-- central -->
<g id="node2" class="node">
<title>central</title>
<path fill="#f2f2f2" stroke="#333333" stroke-width="1.5" d="M452.4,-796C452.4,-796 285.6,-796 285.6,-796 279.6,-796 273.6,-790 273.6,-784 273.6,-784 273.6,-759.04 273.6,-759.04 273.6,-753.04 279.6,-747.04 285.6,-747.04 285.6,-747.04 452.4,-747.04 452.4,-747.04 458.4,-747.04 464.4,-753.04 464.4,-759.04 464.4,-759.04 464.4,-784 464.4,-784 464.4,-790 458.4,-796 452.4,-796"/>
<text xml:space="preserve" text-anchor="middle" x="369" y="-768.28" font-family="Microsoft YaHei, Noto Sans CJK SC, sans-serif" font-size="10.80" fill="#111111">中央方法库</text>
</g>
<!-- global -->
<g id="node3" class="node">
<title>global</title>
<path fill="#ffffff" stroke="#333333" stroke-width="1.2" d="M237.4,-702.04C237.4,-702.04 70.6,-702.04 70.6,-702.04 64.6,-702.04 58.6,-696.04 58.6,-690.04 58.6,-690.04 58.6,-665.08 58.6,-665.08 58.6,-659.08 64.6,-653.08 70.6,-653.08 70.6,-653.08 237.4,-653.08 237.4,-653.08 243.4,-653.08 249.4,-659.08 249.4,-665.08 249.4,-665.08 249.4,-690.04 249.4,-690.04 249.4,-696.04 243.4,-702.04 237.4,-702.04"/>
<text xml:space="preserve" text-anchor="middle" x="154" y="-674.32" font-family="Microsoft YaHei, Noto Sans CJK SC, sans-serif" font-size="10.80" fill="#111111">全局 AGENTS.md（可选）</text>
</g>
<!-- skill -->
<g id="node4" class="node">
<title>skill</title>
<path fill="#f2f2f2" stroke="#333333" stroke-width="1.2" d="M452.4,-702.04C452.4,-702.04 285.6,-702.04 285.6,-702.04 279.6,-702.04 273.6,-696.04 273.6,-690.04 273.6,-690.04 273.6,-665.08 273.6,-665.08 273.6,-659.08 279.6,-653.08 285.6,-653.08 285.6,-653.08 452.4,-653.08 452.4,-653.08 458.4,-653.08 464.4,-659.08 464.4,-665.08 464.4,-665.08 464.4,-690.04 464.4,-690.04 464.4,-696.04 458.4,-702.04 452.4,-702.04"/>
<text xml:space="preserve" text-anchor="middle" x="369" y="-674.32" font-family="Microsoft YaHei, Noto Sans CJK SC, sans-serif" font-size="10.80" fill="#111111">项目治理 Skill（可选）</text>
</g>
<!-- entry -->
<g id="node5" class="node">
<title>entry</title>
<path fill="#f2f2f2" stroke="#333333" stroke-width="1.2" d="M237.4,-575.88C237.4,-575.88 70.6,-575.88 70.6,-575.88 64.6,-575.88 58.6,-569.88 58.6,-563.88 58.6,-563.88 58.6,-536.04 58.6,-536.04 58.6,-530.04 64.6,-524.04 70.6,-524.04 70.6,-524.04 237.4,-524.04 237.4,-524.04 243.4,-524.04 249.4,-530.04 249.4,-536.04 249.4,-536.04 249.4,-563.88 249.4,-563.88 249.4,-569.88 243.4,-575.88 237.4,-575.88"/>
<text xml:space="preserve" text-anchor="middle" x="154" y="-546.72" font-family="Microsoft YaHei, Noto Sans CJK SC, sans-serif" font-size="10.80" fill="#111111">本地入口与边界</text>
</g>
<!-- landing -->
<g id="node6" class="node">
<title>landing</title>
<path fill="#f2f2f2" stroke="#333333" stroke-width="1.2" d="M452.4,-575.88C452.4,-575.88 285.6,-575.88 285.6,-575.88 279.6,-575.88 273.6,-569.88 273.6,-563.88 273.6,-563.88 273.6,-536.04 273.6,-536.04 273.6,-530.04 279.6,-524.04 285.6,-524.04 285.6,-524.04 452.4,-524.04 452.4,-524.04 458.4,-524.04 464.4,-530.04 464.4,-536.04 464.4,-536.04 464.4,-563.88 464.4,-563.88 464.4,-569.88 458.4,-575.88 452.4,-575.88"/>
<text xml:space="preserve" text-anchor="middle" x="369" y="-546.72" font-family="Microsoft YaHei, Noto Sans CJK SC, sans-serif" font-size="10.80" fill="#111111">系统落地</text>
</g>
<!-- diagnosis -->
<g id="node7" class="node">
<title>diagnosis</title>
<path fill="#ffffff" stroke="#333333" stroke-width="1.2" d="M667.4,-575.88C667.4,-575.88 500.6,-575.88 500.6,-575.88 494.6,-575.88 488.6,-569.88 488.6,-563.88 488.6,-563.88 488.6,-536.04 488.6,-536.04 488.6,-530.04 494.6,-524.04 500.6,-524.04 500.6,-524.04 667.4,-524.04 667.4,-524.04 673.4,-524.04 679.4,-530.04 679.4,-536.04 679.4,-536.04 679.4,-563.88 679.4,-563.88 679.4,-569.88 673.4,-575.88 667.4,-575.88"/>
<text xml:space="preserve" text-anchor="middle" x="584" y="-546.72" font-family="Microsoft YaHei, Noto Sans CJK SC, sans-serif" font-size="10.80" fill="#111111">诊断反思</text>
</g>
<!-- sync -->
<g id="node8" class="node">
<title>sync</title>
<path fill="#f2f2f2" stroke="#333333" stroke-width="1.2" d="M882.4,-575.88C882.4,-575.88 715.6,-575.88 715.6,-575.88 709.6,-575.88 703.6,-569.88 703.6,-563.88 703.6,-563.88 703.6,-536.04 703.6,-536.04 703.6,-530.04 709.6,-524.04 715.6,-524.04 715.6,-524.04 882.4,-524.04 882.4,-524.04 888.4,-524.04 894.4,-530.04 894.4,-536.04 894.4,-536.04 894.4,-563.88 894.4,-563.88 894.4,-569.88 888.4,-575.88 882.4,-575.88"/>
<text xml:space="preserve" text-anchor="middle" x="799" y="-553.2" font-family="Microsoft YaHei, Noto Sans CJK SC, sans-serif" font-size="10.80" fill="#111111">跨项目学习</text>
<text xml:space="preserve" text-anchor="middle" x="799" y="-540.24" font-family="Microsoft YaHei, Noto Sans CJK SC, sans-serif" font-size="10.80" fill="#111111">与同步升级</text>
</g>
<!-- daily -->
<g id="node9" class="node">
<title>daily</title>
<path fill="#ffffff" stroke="#333333" stroke-width="1.2" d="M237.4,-479.04C237.4,-479.04 70.6,-479.04 70.6,-479.04 64.6,-479.04 58.6,-473.04 58.6,-467.04 58.6,-467.04 58.6,-439.2 58.6,-439.2 58.6,-433.2 64.6,-427.2 70.6,-427.2 70.6,-427.2 237.4,-427.2 237.4,-427.2 243.4,-427.2 249.4,-433.2 249.4,-439.2 249.4,-439.2 249.4,-467.04 249.4,-467.04 249.4,-473.04 243.4,-479.04 237.4,-479.04"/>
<text xml:space="preserve" text-anchor="middle" x="154" y="-449.88" font-family="Microsoft YaHei, Noto Sans CJK SC, sans-serif" font-size="10.80" fill="#111111">日常资料处理</text>
</g>
<!-- validation -->
<g id="node10" class="node">
<title>validation</title>
<path fill="#e8e8e8" stroke="#333333" stroke-width="1.55" d="M884.4,-479.04C884.4,-479.04 285.6,-479.04 285.6,-479.04 279.6,-479.04 273.6,-473.04 273.6,-467.04 273.6,-467.04 273.6,-439.2 273.6,-439.2 273.6,-433.2 279.6,-427.2 285.6,-427.2 285.6,-427.2 884.4,-427.2 884.4,-427.2 890.4,-427.2 896.4,-433.2 896.4,-439.2 896.4,-439.2 896.4,-467.04 896.4,-467.04 896.4,-473.04 890.4,-479.04 884.4,-479.04"/>
<text xml:space="preserve" text-anchor="middle" x="585" y="-449.88" font-family="Microsoft YaHei, Noto Sans CJK SC, sans-serif" font-size="10.80" fill="#111111">共同检查：在真实项目对话中验证</text>
</g>
<!-- memory_turn_left -->
<!-- memory_turn_center -->
<!-- memory_entry -->
<g id="node13" class="node">
<title>memory_entry</title>
<path fill="#ffffff" stroke="#333333" stroke-width="1.2" d="M839.8,-307.56C839.8,-307.56 86.2,-307.56 86.2,-307.56 80.2,-307.56 74.2,-301.56 74.2,-295.56 74.2,-295.56 74.2,-272.04 74.2,-272.04 74.2,-266.04 80.2,-260.04 86.2,-260.04 86.2,-260.04 839.8,-260.04 839.8,-260.04 845.8,-260.04 851.8,-266.04 851.8,-272.04 851.8,-272.04 851.8,-295.56 851.8,-295.56 851.8,-301.56 845.8,-307.56 839.8,-307.56"/>
<text xml:space="preserve" text-anchor="middle" x="463" y="-280.56" font-family="Microsoft YaHei, Noto Sans CJK SC, sans-serif" font-size="10.80" fill="#111111">有长期价值：将结果放回合适位置</text>
</g>
<!-- memory_balance_left -->
<!-- memory_balance_right -->
<!-- memory_anchor_1 -->
<!-- memory_anchor_2 -->
<!-- memory_anchor_mid -->
<!-- memory_anchor_3 -->
<!-- memory_anchor_4 -->
<!-- current_plan -->
<g id="node21" class="node">
<title>current_plan</title>
<path fill="#f5f5f5" stroke="#bbbbbb" stroke-width="1.2" d="M245.6,-168.6C245.6,-168.6 100.4,-168.6 100.4,-168.6 94.4,-168.6 88.4,-162.6 88.4,-156.6 88.4,-156.6 88.4,-131.64 88.4,-131.64 88.4,-125.64 94.4,-119.64 100.4,-119.64 100.4,-119.64 245.6,-119.64 245.6,-119.64 251.6,-119.64 257.6,-125.64 257.6,-131.64 257.6,-131.64 257.6,-156.6 257.6,-156.6 257.6,-162.6 251.6,-168.6 245.6,-168.6"/>
<text xml:space="preserve" text-anchor="middle" x="173" y="-140.88" font-family="Microsoft YaHei, Noto Sans CJK SC, sans-serif" font-size="10.80" fill="#888888">计划事项（已停用）</text>
</g>
<!-- vocabulary -->
<g id="node22" class="node">
<title>vocabulary</title>
<path fill="#ffffff" stroke="#333333" stroke-width="1.2" d="M438.6,-168.6C438.6,-168.6 293.4,-168.6 293.4,-168.6 287.4,-168.6 281.4,-162.6 281.4,-156.6 281.4,-156.6 281.4,-131.64 281.4,-131.64 281.4,-125.64 287.4,-119.64 293.4,-119.64 293.4,-119.64 438.6,-119.64 438.6,-119.64 444.6,-119.64 450.6,-125.64 450.6,-131.64 450.6,-131.64 450.6,-156.6 450.6,-156.6 450.6,-162.6 444.6,-168.6 438.6,-168.6"/>
<text xml:space="preserve" text-anchor="middle" x="366" y="-140.88" font-family="Microsoft YaHei, Noto Sans CJK SC, sans-serif" font-size="10.80" fill="#111111">统一用词</text>
</g>
<!-- project_log -->
<g id="node23" class="node">
<title>project_log</title>
<path fill="#f2f2f2" stroke="#333333" stroke-width="1.2" d="M631.6,-168.6C631.6,-168.6 486.4,-168.6 486.4,-168.6 480.4,-168.6 474.4,-162.6 474.4,-156.6 474.4,-156.6 474.4,-131.64 474.4,-131.64 474.4,-125.64 480.4,-119.64 486.4,-119.64 486.4,-119.64 631.6,-119.64 631.6,-119.64 637.6,-119.64 643.6,-125.64 643.6,-131.64 643.6,-131.64 643.6,-156.6 643.6,-156.6 643.6,-162.6 637.6,-168.6 631.6,-168.6"/>
<text xml:space="preserve" text-anchor="middle" x="559" y="-140.88" font-family="Microsoft YaHei, Noto Sans CJK SC, sans-serif" font-size="10.80" fill="#111111">治理日志</text>
</g>
<!-- durable_files -->
<g id="node24" class="node">
<title>durable_files</title>
<path fill="#ffffff" stroke="#333333" stroke-width="1.2" d="M824.6,-168.6C824.6,-168.6 679.4,-168.6 679.4,-168.6 673.4,-168.6 667.4,-162.6 667.4,-156.6 667.4,-156.6 667.4,-131.64 667.4,-131.64 667.4,-125.64 673.4,-119.64 679.4,-119.64 679.4,-119.64 824.6,-119.64 824.6,-119.64 830.6,-119.64 836.6,-125.64 836.6,-131.64 836.6,-131.64 836.6,-156.6 836.6,-156.6 836.6,-162.6 830.6,-168.6 824.6,-168.6"/>
<text xml:space="preserve" text-anchor="middle" x="752" y="-140.88" font-family="Microsoft YaHei, Noto Sans CJK SC, sans-serif" font-size="10.80" fill="#111111">项目长期资料</text>
</g>
<!-- scope_note -->
<g id="node25" class="node">
<title>scope_note</title>
<polygon fill="#f7f7f7" stroke="#777777" stroke-width="1.2" stroke-dasharray="5,2" points="845.8,-74.64 74.2,-74.64 74.2,-30 851.8,-30 851.8,-68.64 845.8,-74.64"/>
<polyline fill="none" stroke="#777777" stroke-width="1.2" stroke-dasharray="5,2" points="845.8,-74.64 845.8,-68.64"/>
<polyline fill="none" stroke="#777777" stroke-width="1.2" stroke-dasharray="5,2" points="851.8,-68.64 845.8,-68.64"/>
<text xml:space="preserve" text-anchor="middle" x="463" y="-49.38" font-family="Microsoft YaHei, Noto Sans CJK SC, sans-serif" font-size="9.80" fill="#111111">没有长期变化就不新增记录；项目事实留在本地，只分享可复用的方法。</text>
</g>
</g>
</svg>
