<?xml version="1.0" encoding="UTF-8" standalone="no"?>
<!DOCTYPE svg PUBLIC "-//W3C//DTD SVG 1.1//EN"
 "http://www.w3.org/Graphics/SVG/1.1/DTD/svg11.dtd">
<!-- Generated by graphviz version 15.1.0 (20260618.0150)
 -->
<!-- Title: UnifiedWording Pages: 1 -->
<svg width="806pt" height="1819pt"
 viewBox="0.00 0.00 806.00 1819.00" xmlns="http://www.w3.org/2000/svg" xmlns:xlink="http://www.w3.org/1999/xlink">
<g id="graph0" class="graph" transform="scale(1 1) rotate(0) translate(27.36 1791.85)">
<title>UnifiedWording</title>
<polygon fill="#ffffff" stroke="none" points="-27.36,27.36 -27.36,-1791.85 778.36,-1791.85 778.36,27.36 -27.36,27.36"/>
<text xml:space="preserve" text-anchor="middle" x="375.5" y="-1743.39" font-family="Microsoft YaHei" font-size="18.00" fill="#111111">统一用词</text>
<g id="clust1" class="cluster">
<title>cluster_session</title>
<polygon fill="#ffffff" stroke="#777777" stroke-width="1.1" points="52,-513.47 52,-1723.74 743,-1723.74 743,-513.47 52,-513.47"/>
<text xml:space="preserve" text-anchor="middle" x="397.5" y="-1706.44" font-family="Microsoft YaHei" font-size="14.00" fill="#111111">第一阶段：会话内统一用词</text>
</g>
<g id="clust5" class="cluster">
<title>cluster_adoption</title>
<polygon fill="#ffffff" stroke="#777777" stroke-width="1.1" points="8,-8 8,-505.47 743,-505.47 743,-8 8,-8"/>
<text xml:space="preserve" text-anchor="middle" x="375.5" y="-488.17" font-family="Microsoft YaHei" font-size="14.00" fill="#111111">第二阶段：后续真实任务采用验证</text>
</g>
<!-- session_start&#45;&gt;read_entry -->
<g id="edge1" class="edge">
<title>session_start&#45;&gt;read_entry</title>
<path fill="none" stroke="#444444" stroke-width="1.2" d="M240,-1621.14C240,-1621.14 240,-1583.2 240,-1583.2"/>
<polygon fill="#444444" stroke="#444444" stroke-width="1.2" points="242.59,-1583.2 240,-1575.8 237.41,-1583.2 242.59,-1583.2"/>
</g>
<!-- read_entry&#45;&gt;read_carrier -->
<g id="edge2" class="edge">
<title>read_entry&#45;&gt;read_carrier</title>
<path fill="none" stroke="#444444" stroke-width="1.2" d="M240,-1521.3C240,-1521.3 240,-1483.44 240,-1483.44"/>
<polygon fill="#444444" stroke="#444444" stroke-width="1.2" points="242.59,-1483.44 240,-1476.04 237.41,-1483.44 242.59,-1483.44"/>
</g>
<!-- read_carrier&#45;&gt;use_confirmed -->
<g id="edge3" class="edge">
<title>read_carrier&#45;&gt;use_confirmed</title>
<path fill="none" stroke="#444444" stroke-width="1.2" d="M240,-1421.46C240,-1421.46 240,-1383.6 240,-1383.6"/>
<polygon fill="#444444" stroke="#444444" stroke-width="1.2" points="242.59,-1383.6 240,-1376.2 237.41,-1383.6 242.59,-1383.6"/>
</g>
<!-- use_confirmed&#45;&gt;material_difference -->
<g id="edge4" class="edge">
<title>use_confirmed&#45;&gt;material_difference</title>
<path fill="none" stroke="#444444" stroke-width="1.2" d="M240,-1321.7C240,-1321.7 240,-1283.67 240,-1283.67"/>
<polygon fill="#444444" stroke="#444444" stroke-width="1.2" points="242.59,-1283.67 240,-1276.27 237.41,-1283.67 242.59,-1283.67"/>
</g>
<!-- material_difference&#45;&gt;no_material_difference -->
<g id="edge5" class="edge">
<title>material_difference&#45;&gt;no_material_difference</title>
<path fill="none" stroke="#444444" stroke-width="1.2" d="M406.71,-1232C406.71,-1232 437.39,-1232 437.39,-1232"/>
<polygon fill="#444444" stroke="#444444" stroke-width="1.2" points="437.39,-1234.59 444.79,-1232 437.39,-1229.41 437.39,-1234.59"/>
<text xml:space="preserve" text-anchor="middle" x="431.05" y="-1236.2" font-family="Microsoft YaHei" font-size="9.00" fill="#333333">没有</text>
</g>
<!-- material_difference&#45;&gt;clarify -->
<g id="edge6" class="edge">
<title>material_difference&#45;&gt;clarify</title>
<path fill="none" stroke="#444444" stroke-width="1.2" d="M240,-1188.7C240,-1188.7 240,-1150.81 240,-1150.81"/>
<polygon fill="#444444" stroke="#444444" stroke-width="1.2" points="242.59,-1150.81 240,-1143.41 237.41,-1150.81 242.59,-1150.81"/>
<text xml:space="preserve" text-anchor="middle" x="235.5" y="-1173.95" font-family="Microsoft YaHei" font-size="9.00" fill="#333333">有</text>
</g>
<!-- clarify&#45;&gt;propose -->
<g id="edge7" class="edge">
<title>clarify&#45;&gt;propose</title>
<path fill="none" stroke="#444444" stroke-width="1.2" d="M240,-1088.82C240,-1088.82 240,-1050.96 240,-1050.96"/>
<polygon fill="#444444" stroke="#444444" stroke-width="1.2" points="242.59,-1050.96 240,-1043.56 237.41,-1050.96 242.59,-1050.96"/>
</g>
<!-- propose&#45;&gt;confirmed -->
<g id="edge8" class="edge">
<title>propose&#45;&gt;confirmed</title>
<path fill="none" stroke="#444444" stroke-width="1.2" d="M240,-989.08C240,-989.08 240,-951.33 240,-951.33"/>
<polygon fill="#444444" stroke="#444444" stroke-width="1.2" points="242.59,-951.33 240,-943.93 237.41,-951.33 242.59,-951.33"/>
</g>
<!-- confirmed&#45;&gt;not_confirmed -->
<g id="edge9" class="edge">
<title>confirmed&#45;&gt;not_confirmed</title>
<path fill="none" stroke="#444444" stroke-width="1.2" d="M407.72,-904C407.72,-904 437.48,-904 437.48,-904"/>
<polygon fill="#444444" stroke="#444444" stroke-width="1.2" points="437.48,-906.59 444.88,-904 437.48,-901.41 437.48,-906.59"/>
<text xml:space="preserve" text-anchor="middle" x="429.35" y="-895.45" font-family="Microsoft YaHei" font-size="9.00" fill="#333333">未确认</text>
</g>
<!-- confirmed&#45;&gt;need_table -->
<g id="edge10" class="edge">
<title>confirmed&#45;&gt;need_table</title>
<path fill="none" stroke="#444444" stroke-width="1.2" d="M240,-866.38C240,-866.38 240,-828.34 240,-828.34"/>
<polygon fill="#444444" stroke="#444444" stroke-width="1.2" points="242.59,-828.34 240,-820.94 237.41,-828.34 242.59,-828.34"/>
<text xml:space="preserve" text-anchor="middle" x="226.5" y="-851.56" font-family="Microsoft YaHei" font-size="9.00" fill="#333333">已确认</text>
</g>
<!-- need_table&#45;&gt;create_table -->
<g id="edge11" class="edge">
<title>need_table&#45;&gt;create_table</title>
<path fill="none" stroke="#444444" stroke-width="1.2" d="M240,-737.43C240,-737.43 240,-699.72 240,-699.72"/>
<polygon fill="#444444" stroke="#444444" stroke-width="1.2" points="242.59,-699.72 240,-692.32 237.41,-699.72 242.59,-699.72"/>
<text xml:space="preserve" text-anchor="middle" x="231" y="-722.78" font-family="Microsoft YaHei" font-size="9.00" fill="#333333">需要</text>
</g>
<!-- need_table&#45;&gt;update_owner -->
<g id="edge12" class="edge">
<title>need_table&#45;&gt;update_owner</title>
<path fill="none" stroke="#444444" stroke-width="1.2" d="M406.46,-778C406.46,-778 437.44,-778 437.44,-778"/>
<polygon fill="#444444" stroke="#444444" stroke-width="1.2" points="437.44,-780.59 444.84,-778 437.44,-775.41 437.44,-780.59"/>
<text xml:space="preserve" text-anchor="middle" x="428.7" y="-769.45" font-family="Microsoft YaHei" font-size="9.00" fill="#333333">不需要</text>
</g>
<!-- create_table&#45;&gt;session_done -->
<g id="edge13" class="edge">
<title>create_table&#45;&gt;session_done</title>
<path fill="none" stroke="#444444" stroke-width="1.2" d="M240,-637.76C240,-637.76 240,-600.03 240,-600.03"/>
<polygon fill="#444444" stroke="#444444" stroke-width="1.2" points="242.59,-600.03 240,-592.63 237.41,-600.03 242.59,-600.03"/>
</g>
<!-- update_owner&#45;&gt;session_done -->
<g id="edge14" class="edge">
<title>update_owner&#45;&gt;session_done</title>
<path fill="none" stroke="#444444" stroke-width="1.2" d="M584,-751.94C584,-694.44 584,-563 584,-563 584,-563 386.66,-563 386.66,-563"/>
<polygon fill="#444444" stroke="#444444" stroke-width="1.2" points="386.66,-560.41 379.26,-563 386.66,-565.59 386.66,-560.41"/>
</g>
<!-- session_done&#45;&gt;later_task -->
<!-- later_task&#45;&gt;actually_adopted -->
<g id="edge15" class="edge">
<title>later_task&#45;&gt;actually_adopted</title>
<path fill="none" stroke="#444444" stroke-width="1.2" d="M240,-401.48C240,-401.48 240,-363.55 240,-363.55"/>
<polygon fill="#444444" stroke="#444444" stroke-width="1.2" points="242.59,-363.55 240,-356.15 237.41,-363.55 242.59,-363.55"/>
</g>
<!-- actually_adopted&#45;&gt;adoption_done -->
<g id="edge16" class="edge">
<title>actually_adopted&#45;&gt;adoption_done</title>
<path fill="none" stroke="#444444" stroke-width="1.2" d="M406.21,-317C406.21,-317 437.48,-317 437.48,-317"/>
<polygon fill="#444444" stroke="#444444" stroke-width="1.2" points="437.48,-319.59 444.88,-317 437.48,-314.41 437.48,-319.59"/>
<text xml:space="preserve" text-anchor="middle" x="428.59" y="-308.45" font-family="Microsoft YaHei" font-size="9.00" fill="#333333">已采用</text>
</g>
<!-- actually_adopted&#45;&gt;diagnose -->
<g id="edge17" class="edge">
<title>actually_adopted&#45;&gt;diagnose</title>
<path fill="none" stroke="#444444" stroke-width="1.2" d="M240,-278.55C240,-278.55 240,-240.69 240,-240.69"/>
<polygon fill="#444444" stroke="#444444" stroke-width="1.2" points="242.59,-240.69 240,-233.29 237.41,-240.69 242.59,-240.69"/>
<text xml:space="preserve" text-anchor="middle" x="226.5" y="-263.82" font-family="Microsoft YaHei" font-size="9.00" fill="#333333">未采用</text>
</g>
<!-- diagnose&#45;&gt;repair -->
<g id="edge18" class="edge">
<title>diagnose&#45;&gt;repair</title>
<path fill="none" stroke="#444444" stroke-width="1.2" d="M240,-178.71C240,-178.71 240,-140.85 240,-140.85"/>
<polygon fill="#444444" stroke="#444444" stroke-width="1.2" points="242.59,-140.85 240,-133.45 237.41,-140.85 242.59,-140.85"/>
</g>
<!-- repair&#45;&gt;feedback_bottom -->
<g id="edge19" class="edge">
<title>repair&#45;&gt;feedback_bottom</title>
<path fill="none" stroke="#444444" stroke-width="1.2" stroke-dasharray="5,2" d="M240,-79.25C240,-57.73 240,-30.72 240,-30.72"/>
</g>
<!-- feedback_outer_bottom&#45;&gt;feedback_bottom -->
<g id="edge20" class="edge">
<title>feedback_outer_bottom&#45;&gt;feedback_bottom</title>
<path fill="none" stroke="#444444" stroke-width="1.2" stroke-dasharray="5,2" d="M31,-31C31,-31 240,-31 240,-31"/>
</g>
<!-- feedback_outer_top&#45;&gt;later_task -->
<g id="edge22" class="edge">
<title>feedback_outer_top&#45;&gt;later_task</title>
<path fill="none" stroke="#444444" stroke-width="1.2" stroke-dasharray="5,2" d="M31,-429C31,-429 64.58,-429 64.58,-429"/>
<polygon fill="#444444" stroke="#444444" stroke-width="1.2" points="64.58,-431.59 71.98,-429 64.58,-426.41 64.58,-431.59"/>
</g>
<!-- feedback_outer_top&#45;&gt;feedback_outer_bottom -->
<g id="edge21" class="edge">
<title>feedback_outer_top&#45;&gt;feedback_outer_bottom</title>
<path fill="none" stroke="#444444" stroke-width="1.2" stroke-dasharray="5,2" d="M31,-429.36C31,-429.36 31,-30.72 31,-30.72"/>
</g>
<!-- session_start -->
<g id="node1" class="node">
<title>session_start</title>
<ellipse fill="#ffffff" stroke="#333333" stroke-width="1.5" cx="240" cy="-1648.35" rx="165.6" ry="26.64"/>
<text xml:space="preserve" text-anchor="middle" x="240" y="-1645.4" font-family="Microsoft YaHei" font-size="11.00" fill="#111111">已启用项目的新对话、压缩恢复或相关任务开始</text>
</g>
<!-- read_entry -->
<g id="node2" class="node">
<title>read_entry</title>
<path fill="#f2f2f2" stroke="#333333" stroke-width="1.2" d="M393.6,-1573.71C393.6,-1573.71 86.4,-1573.71 86.4,-1573.71 80.4,-1573.71 74.4,-1567.71 74.4,-1561.71 74.4,-1561.71 74.4,-1533.87 74.4,-1533.87 74.4,-1527.87 80.4,-1521.87 86.4,-1521.87 86.4,-1521.87 393.6,-1521.87 393.6,-1521.87 399.6,-1521.87 405.6,-1527.87 405.6,-1533.87 405.6,-1533.87 405.6,-1561.71 405.6,-1561.71 405.6,-1567.71 399.6,-1573.71 393.6,-1573.71"/>
<text xml:space="preserve" text-anchor="middle" x="240" y="-1544.84" font-family="Microsoft YaHei" font-size="11.00" fill="#111111">读取声明已启用的项目本地入口</text>
</g>
<!-- read_carrier -->
<g id="node3" class="node">
<title>read_carrier</title>
<path fill="#f2f2f2" stroke="#333333" stroke-width="1.2" d="M393.6,-1473.87C393.6,-1473.87 86.4,-1473.87 86.4,-1473.87 80.4,-1473.87 74.4,-1467.87 74.4,-1461.87 74.4,-1461.87 74.4,-1434.03 74.4,-1434.03 74.4,-1428.03 80.4,-1422.03 86.4,-1422.03 86.4,-1422.03 393.6,-1422.03 393.6,-1422.03 399.6,-1422.03 405.6,-1428.03 405.6,-1434.03 405.6,-1434.03 405.6,-1461.87 405.6,-1461.87 405.6,-1467.87 399.6,-1473.87 393.6,-1473.87"/>
<text xml:space="preserve" text-anchor="middle" x="240" y="-1445" font-family="Microsoft YaHei" font-size="11.00" fill="#111111">自动读取用词承载面一次</text>
</g>
<!-- use_confirmed -->
<g id="node4" class="node">
<title>use_confirmed</title>
<path fill="#ffffff" stroke="#333333" stroke-width="1.2" d="M393.6,-1374.03C393.6,-1374.03 86.4,-1374.03 86.4,-1374.03 80.4,-1374.03 74.4,-1368.03 74.4,-1362.03 74.4,-1362.03 74.4,-1334.19 74.4,-1334.19 74.4,-1328.19 80.4,-1322.19 86.4,-1322.19 86.4,-1322.19 393.6,-1322.19 393.6,-1322.19 399.6,-1322.19 405.6,-1328.19 405.6,-1334.19 405.6,-1334.19 405.6,-1362.03 405.6,-1362.03 405.6,-1368.03 399.6,-1374.03 393.6,-1374.03"/>
<text xml:space="preserve" text-anchor="middle" x="240" y="-1345.16" font-family="Microsoft YaHei" font-size="11.00" fill="#111111">静默使用已确认说法</text>
</g>
<!-- material_difference -->
<g id="node5" class="node">
<title>material_difference</title>
<polygon fill="#ffffff" stroke="#333333" stroke-width="1.2" points="240,-1274.19 74.4,-1231.71 240,-1189.23 405.6,-1231.71 240,-1274.19"/>
<text xml:space="preserve" text-anchor="middle" x="240" y="-1228.76" font-family="Microsoft YaHei" font-size="11.00" fill="#111111">出现实质冲突或值得长期固定的新说法？</text>
</g>
<!-- no_material_difference -->
<g id="node6" class="node">
<title>no_material_difference</title>
<ellipse fill="#f7f7f7" stroke="#333333" stroke-width="1.2" cx="584" cy="-1231.71" rx="136.8" ry="27.36"/>
<text xml:space="preserve" text-anchor="middle" x="584" y="-1228.76" font-family="Microsoft YaHei" font-size="11.00" fill="#111111">无实质差异：继续当前任务</text>
</g>
<!-- clarify -->
<g id="node7" class="node">
<title>clarify</title>
<path fill="#f2f2f2" stroke="#333333" stroke-width="1.2" d="M393.6,-1141.23C393.6,-1141.23 86.4,-1141.23 86.4,-1141.23 80.4,-1141.23 74.4,-1135.23 74.4,-1129.23 74.4,-1129.23 74.4,-1101.39 74.4,-1101.39 74.4,-1095.39 80.4,-1089.39 86.4,-1089.39 86.4,-1089.39 393.6,-1089.39 393.6,-1089.39 399.6,-1089.39 405.6,-1095.39 405.6,-1101.39 405.6,-1101.39 405.6,-1129.23 405.6,-1129.23 405.6,-1135.23 399.6,-1141.23 393.6,-1141.23"/>
<text xml:space="preserve" text-anchor="middle" x="240" y="-1112.36" font-family="Microsoft YaHei" font-size="11.00" fill="#111111">核对含义和使用边界</text>
</g>
<!-- propose -->
<g id="node8" class="node">
<title>propose</title>
<path fill="#ffffff" stroke="#333333" stroke-width="1.2" d="M393.6,-1041.39C393.6,-1041.39 86.4,-1041.39 86.4,-1041.39 80.4,-1041.39 74.4,-1035.39 74.4,-1029.39 74.4,-1029.39 74.4,-1001.55 74.4,-1001.55 74.4,-995.55 80.4,-989.55 86.4,-989.55 86.4,-989.55 393.6,-989.55 393.6,-989.55 399.6,-989.55 405.6,-995.55 405.6,-1001.55 405.6,-1001.55 405.6,-1029.39 405.6,-1029.39 405.6,-1035.39 399.6,-1041.39 393.6,-1041.39"/>
<text xml:space="preserve" text-anchor="middle" x="240" y="-1012.52" font-family="Microsoft YaHei" font-size="11.00" fill="#111111">只提出一个统一建议</text>
</g>
<!-- confirmed -->
<g id="node9" class="node">
<title>confirmed</title>
<polygon fill="#ffffff" stroke="#333333" stroke-width="1.2" points="240,-941.55 74.4,-904.11 240,-866.67 405.6,-904.11 240,-941.55"/>
<text xml:space="preserve" text-anchor="middle" x="240" y="-901.16" font-family="Microsoft YaHei" font-size="11.00" fill="#111111">用户已经确认？</text>
</g>
<!-- not_confirmed -->
<g id="node10" class="node">
<title>not_confirmed</title>
<ellipse fill="#f7f7f7" stroke="#333333" stroke-width="1.2" stroke-dasharray="5,2" cx="584" cy="-904.11" rx="136.8" ry="27.36"/>
<text xml:space="preserve" text-anchor="middle" x="584" y="-901.16" font-family="Microsoft YaHei" font-size="11.00" fill="#111111">未确认：不写回，继续当前任务</text>
</g>
<!-- need_table -->
<g id="node11" class="node">
<title>need_table</title>
<polygon fill="#ffffff" stroke="#333333" stroke-width="1.2" points="240,-818.67 74.4,-778.35 240,-738.03 405.6,-778.35 240,-818.67"/>
<text xml:space="preserve" text-anchor="middle" x="240" y="-775.4" font-family="Microsoft YaHei" font-size="11.00" fill="#111111">确有持续需要建立项目用词表？</text>
</g>
<!-- create_table -->
<g id="node12" class="node">
<title>create_table</title>
<path fill="#f2f2f2" stroke="#333333" stroke-width="1.2" d="M393.6,-690.03C393.6,-690.03 86.4,-690.03 86.4,-690.03 80.4,-690.03 74.4,-684.03 74.4,-678.03 74.4,-678.03 74.4,-650.19 74.4,-650.19 74.4,-644.19 80.4,-638.19 86.4,-638.19 86.4,-638.19 393.6,-638.19 393.6,-638.19 399.6,-638.19 405.6,-644.19 405.6,-650.19 405.6,-650.19 405.6,-678.03 405.6,-678.03 405.6,-684.03 399.6,-690.03 393.6,-690.03"/>
<text xml:space="preserve" text-anchor="middle" x="240" y="-661.16" font-family="Microsoft YaHei" font-size="11.00" fill="#111111">确有需要：建立项目用词表</text>
</g>
<!-- update_owner -->
<g id="node13" class="node">
<title>update_owner</title>
<path fill="#f2f2f2" stroke="#333333" stroke-width="1.2" d="M708.8,-804.27C708.8,-804.27 459.2,-804.27 459.2,-804.27 453.2,-804.27 447.2,-798.27 447.2,-792.27 447.2,-792.27 447.2,-764.43 447.2,-764.43 447.2,-758.43 453.2,-752.43 459.2,-752.43 459.2,-752.43 708.8,-752.43 708.8,-752.43 714.8,-752.43 720.8,-758.43 720.8,-764.43 720.8,-764.43 720.8,-792.27 720.8,-792.27 720.8,-798.27 714.8,-804.27 708.8,-804.27"/>
<text xml:space="preserve" text-anchor="middle" x="584" y="-775.4" font-family="Microsoft YaHei" font-size="11.00" fill="#111111">无需新文件：更新现有承载面</text>
</g>
<!-- session_done -->
<g id="node14" class="node">
<title>session_done</title>
<ellipse fill="#e8e8e8" stroke="#333333" stroke-width="1.5" cx="240" cy="-562.83" rx="136.8" ry="27.36"/>
<text xml:space="preserve" text-anchor="middle" x="240" y="-559.88" font-family="Microsoft YaHei" font-size="11.00" fill="#111111">返回当前任务</text>
</g>
<!-- later_task -->
<g id="node15" class="node">
<title>later_task</title>
<ellipse fill="#ffffff" stroke="#333333" stroke-width="1.5" cx="240" cy="-429.36" rx="165.6" ry="27.36"/>
<text xml:space="preserve" text-anchor="middle" x="240" y="-426.41" font-family="Microsoft YaHei" font-size="11.00" fill="#111111">后续真实任务使用已确认说法</text>
</g>
<!-- actually_adopted -->
<g id="node16" class="node">
<title>actually_adopted</title>
<polygon fill="#ffffff" stroke="#333333" stroke-width="1.2" points="240,-354 74.4,-316.56 240,-279.12 405.6,-316.56 240,-354"/>
<text xml:space="preserve" text-anchor="middle" x="240" y="-313.61" font-family="Microsoft YaHei" font-size="11.00" fill="#111111">真正采用？</text>
</g>
<!-- adoption_done -->
<g id="node17" class="node">
<title>adoption_done</title>
<ellipse fill="#e8e8e8" stroke="#333333" stroke-width="1.5" cx="584" cy="-316.56" rx="136.8" ry="27.36"/>
<text xml:space="preserve" text-anchor="middle" x="584" y="-313.61" font-family="Microsoft YaHei" font-size="11.00" fill="#111111">已采用：统一用词生效</text>
</g>
<!-- diagnose -->
<g id="node18" class="node">
<title>diagnose</title>
<path fill="#f2f2f2" stroke="#333333" stroke-width="1.2" d="M393.6,-231.12C393.6,-231.12 86.4,-231.12 86.4,-231.12 80.4,-231.12 74.4,-225.12 74.4,-219.12 74.4,-219.12 74.4,-191.28 74.4,-191.28 74.4,-185.28 80.4,-179.28 86.4,-179.28 86.4,-179.28 393.6,-179.28 393.6,-179.28 399.6,-179.28 405.6,-185.28 405.6,-191.28 405.6,-191.28 405.6,-219.12 405.6,-219.12 405.6,-225.12 399.6,-231.12 393.6,-231.12"/>
<text xml:space="preserve" text-anchor="middle" x="240" y="-202.25" font-family="Microsoft YaHei" font-size="11.00" fill="#111111">未采用：进入分层诊断</text>
</g>
<!-- repair -->
<g id="node19" class="node">
<title>repair</title>
<path fill="#ffffff" stroke="#333333" stroke-width="1.2" d="M393.6,-131.28C393.6,-131.28 86.4,-131.28 86.4,-131.28 80.4,-131.28 74.4,-125.28 74.4,-119.28 74.4,-119.28 74.4,-91.44 74.4,-91.44 74.4,-85.44 80.4,-79.44 86.4,-79.44 86.4,-79.44 393.6,-79.44 393.6,-79.44 399.6,-79.44 405.6,-85.44 405.6,-91.44 405.6,-91.44 405.6,-119.28 405.6,-119.28 405.6,-125.28 399.6,-131.28 393.6,-131.28"/>
<text xml:space="preserve" text-anchor="middle" x="240" y="-102.41" font-family="Microsoft YaHei" font-size="11.00" fill="#111111">修正最小责任面</text>
</g>
<!-- feedback_bottom -->
<!-- feedback_outer_bottom -->
<!-- feedback_outer_top -->
</g>
</svg>
